<svg width="409" height="171" viewBox="0 0 409 171" fill="none" xmlns="http://www.w3.org/2000/svg">
<g filter="url(#filter0_bd_162_16)">
<rect x="16" y="12" width="377" height="139" rx="15" fill="white" fill-opacity="0.15" shape-rendering="crispEdges"/>
<rect x="15.5" y="11.5" width="378" height="140" rx="15.5" stroke="url(#paint0_linear_162_16)" shape-rendering="crispEdges"/>
</g>
<path d="M200 104C202.833 98.5 212.2 94.9 217 92.5C223 89.5 239 84.5 244.5 84.5C250 84.5 266 87 272.5 86.5C279 86 290.5 72 307 78C323.5 84 324.5 64.5 343 57.5C352.5 52.75 360.5 40 369.5 37" stroke="#008C30" stroke-width="2.5" stroke-linecap="round"/>
<path d="M43.8758 55.288C42.5798 55.288 41.3718 55.08 40.2518 54.664C39.1478 54.232 38.1878 53.624 37.3717 52.84C36.5558 52.056 35.9158 51.136 35.4518 50.08C35.0038 49.024 34.7798 47.864 34.7798 46.6C34.7798 45.336 35.0038 44.176 35.4518 43.12C35.9158 42.064 36.5558 41.144 37.3717 40.36C38.2038 39.576 39.1718 38.976 40.2758 38.56C41.3798 38.128 42.5878 37.912 43.8998 37.912C45.3558 37.912 46.6678 38.168 47.8358 38.68C49.0198 39.176 50.0118 39.912 50.8118 40.888L48.3158 43.192C47.7398 42.536 47.0998 42.048 46.3958 41.728C45.6918 41.392 44.9238 41.224 44.0918 41.224C43.3078 41.224 42.5878 41.352 41.9318 41.608C41.2758 41.864 40.7078 42.232 40.2278 42.712C39.7478 43.192 39.3718 43.76 39.0998 44.416C38.8438 45.072 38.7158 45.8 38.7158 46.6C38.7158 47.4 38.8438 48.128 39.0998 48.784C39.3718 49.44 39.7478 50.008 40.2278 50.488C40.7078 50.968 41.2758 51.336 41.9318 51.592C42.5878 51.848 43.3078 51.976 44.0918 51.976C44.9238 51.976 45.6918 51.816 46.3958 51.496C47.0998 51.16 47.7398 50.656 48.3158 49.984L50.8118 52.288C50.0118 53.264 49.0198 54.008 47.8358 54.52C46.6678 55.032 45.3478 55.288 43.8758 55.288ZM58.872 55.192C57.496 55.192 56.272 54.904 55.2 54.328C54.144 53.752 53.304 52.968 52.68 51.976C52.072 50.968 51.768 49.824 51.768 48.544C51.768 47.248 52.072 46.104 52.68 45.112C53.304 44.104 54.144 43.32 55.2 42.76C56.272 42.184 57.496 41.896 58.872 41.896C60.232 41.896 61.448 42.184 62.52 42.76C63.592 43.32 64.432 44.096 65.04 45.088C65.648 46.08 65.952 47.232 65.952 48.544C65.952 49.824 65.648 50.968 65.04 51.976C64.432 52.968 63.592 53.752 62.52 54.328C61.448 54.904 60.232 55.192 58.872 55.192ZM58.872 52.12C59.496 52.12 60.056 51.976 60.552 51.688C61.048 51.4 61.44 50.992 61.728 50.464C62.016 49.92 62.16 49.28 62.16 48.544C62.16 47.792 62.016 47.152 61.728 46.624C61.44 46.096 61.048 45.688 60.552 45.4C60.056 45.112 59.496 44.968 58.872 44.968C58.248 44.968 57.688 45.112 57.192 45.4C56.696 45.688 56.296 46.096 55.992 46.624C55.704 47.152 55.56 47.792 55.56 48.544C55.56 49.28 55.704 49.92 55.992 50.464C56.296 50.992 56.696 51.4 57.192 51.688C57.688 51.976 58.248 52.12 58.872 52.12ZM76.3026 41.896C77.3266 41.896 78.2386 42.104 79.0386 42.52C79.8546 42.92 80.4946 43.544 80.9586 44.392C81.4226 45.224 81.6546 46.296 81.6546 47.608V55H77.9106V48.184C77.9106 47.144 77.6786 46.376 77.2146 45.88C76.7666 45.384 76.1266 45.136 75.2946 45.136C74.7026 45.136 74.1666 45.264 73.6866 45.52C73.2226 45.76 72.8546 46.136 72.5826 46.648C72.3266 47.16 72.1986 47.816 72.1986 48.616V55H68.4546V42.088H72.0306V45.664L71.3586 44.584C71.8226 43.72 72.4866 43.056 73.3506 42.592C74.2146 42.128 75.1986 41.896 76.3026 41.896ZM88.3179 55L82.8939 42.088H86.7579L91.2699 53.2H89.3499L94.0299 42.088H97.6299L92.1819 55H88.3179ZM105.214 55.192C103.742 55.192 102.446 54.904 101.326 54.328C100.222 53.752 99.3661 52.968 98.7581 51.976C98.1501 50.968 97.8461 49.824 97.8461 48.544C97.8461 47.248 98.1421 46.104 98.7341 45.112C99.3421 44.104 100.166 43.32 101.206 42.76C102.246 42.184 103.422 41.896 104.734 41.896C105.998 41.896 107.134 42.168 108.142 42.712C109.166 43.24 109.974 44.008 110.566 45.016C111.158 46.008 111.454 47.2 111.454 48.592C111.454 48.736 111.446 48.904 111.43 49.096C111.414 49.272 111.398 49.44 111.382 49.6H100.894V47.416H109.414L107.974 48.064C107.974 47.392 107.838 46.808 107.566 46.312C107.294 45.816 106.918 45.432 106.438 45.16C105.958 44.872 105.398 44.728 104.758 44.728C104.118 44.728 103.55 44.872 103.054 45.16C102.574 45.432 102.198 45.824 101.926 46.336C101.654 46.832 101.518 47.424 101.518 48.112V48.688C101.518 49.392 101.67 50.016 101.974 50.56C102.294 51.088 102.734 51.496 103.294 51.784C103.87 52.056 104.542 52.192 105.31 52.192C105.998 52.192 106.598 52.088 107.11 51.88C107.638 51.672 108.118 51.36 108.55 50.944L110.542 53.104C109.95 53.776 109.206 54.296 108.31 54.664C107.414 55.016 106.382 55.192 105.214 55.192ZM113.947 55V42.088H117.523V45.736L117.019 44.68C117.403 43.768 118.019 43.08 118.867 42.616C119.715 42.136 120.747 41.896 121.963 41.896V45.352C121.803 45.336 121.659 45.328 121.531 45.328C121.403 45.312 121.267 45.304 121.123 45.304C120.099 45.304 119.267 45.6 118.627 46.192C118.003 46.768 117.691 47.672 117.691 48.904V55H113.947ZM128.627 55.192C127.523 55.192 126.459 55.064 125.435 54.808C124.427 54.536 123.627 54.2 123.035 53.8L124.283 51.112C124.875 51.48 125.571 51.784 126.371 52.024C127.187 52.248 127.987 52.36 128.771 52.36C129.635 52.36 130.243 52.256 130.595 52.048C130.963 51.84 131.147 51.552 131.147 51.184C131.147 50.88 131.003 50.656 130.715 50.512C130.443 50.352 130.075 50.232 129.611 50.152C129.147 50.072 128.635 49.992 128.075 49.912C127.531 49.832 126.979 49.728 126.419 49.6C125.859 49.456 125.347 49.248 124.883 48.976C124.419 48.704 124.043 48.336 123.755 47.872C123.483 47.408 123.347 46.808 123.347 46.072C123.347 45.256 123.579 44.536 124.043 43.912C124.523 43.288 125.211 42.8 126.107 42.448C127.003 42.08 128.075 41.896 129.323 41.896C130.203 41.896 131.099 41.992 132.011 42.184C132.923 42.376 133.683 42.656 134.291 43.024L133.043 45.688C132.419 45.32 131.787 45.072 131.147 44.944C130.523 44.8 129.915 44.728 129.323 44.728C128.491 44.728 127.883 44.84 127.499 45.064C127.115 45.288 126.923 45.576 126.923 45.928C126.923 46.248 127.059 46.488 127.331 46.648C127.619 46.808 127.995 46.936 128.459 47.032C128.923 47.128 129.427 47.216 129.971 47.296C130.531 47.36 131.091 47.464 131.651 47.608C132.211 47.752 132.715 47.96 133.163 48.232C133.627 48.488 134.003 48.848 134.291 49.312C134.579 49.76 134.723 50.352 134.723 51.088C134.723 51.888 134.483 52.6 134.003 53.224C133.523 53.832 132.827 54.312 131.915 54.664C131.019 55.016 129.923 55.192 128.627 55.192ZM137.033 55V42.088H140.777V55H137.033ZM138.905 40.288C138.217 40.288 137.657 40.088 137.225 39.688C136.793 39.288 136.577 38.792 136.577 38.2C136.577 37.608 136.793 37.112 137.225 36.712C137.657 36.312 138.217 36.112 138.905 36.112C139.593 36.112 140.153 36.304 140.585 36.688C141.017 37.056 141.233 37.536 141.233 38.128C141.233 38.752 141.017 39.272 140.585 39.688C140.169 40.088 139.609 40.288 138.905 40.288ZM150.395 55.192C149.019 55.192 147.795 54.904 146.723 54.328C145.667 53.752 144.827 52.968 144.203 51.976C143.595 50.968 143.291 49.824 143.291 48.544C143.291 47.248 143.595 46.104 144.203 45.112C144.827 44.104 145.667 43.32 146.723 42.76C147.795 42.184 149.019 41.896 150.395 41.896C151.755 41.896 152.971 42.184 154.043 42.76C155.115 43.32 155.955 44.096 156.563 45.088C157.171 46.08 157.475 47.232 157.475 48.544C157.475 49.824 157.171 50.968 156.563 51.976C155.955 52.968 155.115 53.752 154.043 54.328C152.971 54.904 151.755 55.192 150.395 55.192ZM150.395 52.12C151.019 52.12 151.579 51.976 152.075 51.688C152.571 51.4 152.963 50.992 153.251 50.464C153.539 49.92 153.683 49.28 153.683 48.544C153.683 47.792 153.539 47.152 153.251 46.624C152.963 46.096 152.571 45.688 152.075 45.4C151.579 45.112 151.019 44.968 150.395 44.968C149.771 44.968 149.211 45.112 148.715 45.4C148.219 45.688 147.819 46.096 147.515 46.624C147.227 47.152 147.083 47.792 147.083 48.544C147.083 49.28 147.227 49.92 147.515 50.464C147.819 50.992 148.219 51.4 148.715 51.688C149.211 51.976 149.771 52.12 150.395 52.12ZM167.826 41.896C168.85 41.896 169.762 42.104 170.562 42.52C171.378 42.92 172.018 43.544 172.482 44.392C172.946 45.224 173.178 46.296 173.178 47.608V55H169.434V48.184C169.434 47.144 169.202 46.376 168.738 45.88C168.29 45.384 167.65 45.136 166.818 45.136C166.226 45.136 165.69 45.264 165.21 45.52C164.746 45.76 164.378 46.136 164.106 46.648C163.85 47.16 163.722 47.816 163.722 48.616V55H159.978V42.088H163.554V45.664L162.882 44.584C163.346 43.72 164.01 43.056 164.874 42.592C165.738 42.128 166.722 41.896 167.826 41.896ZM183.633 55V38.2H190.905C192.409 38.2 193.705 38.448 194.793 38.944C195.881 39.424 196.721 40.12 197.313 41.032C197.905 41.944 198.201 43.032 198.201 44.296C198.201 45.544 197.905 46.624 197.313 47.536C196.721 48.432 195.881 49.12 194.793 49.6C193.705 50.08 192.409 50.32 190.905 50.32H185.793L187.521 48.616V55H183.633ZM194.313 55L190.113 48.904H194.265L198.513 55H194.313ZM187.521 49.048L185.793 47.224H190.689C191.889 47.224 192.785 46.968 193.377 46.456C193.969 45.928 194.265 45.208 194.265 44.296C194.265 43.368 193.969 42.648 193.377 42.136C192.785 41.624 191.889 41.368 190.689 41.368H185.793L187.521 39.52V49.048ZM208.82 55V52.48L208.58 51.928V47.416C208.58 46.616 208.332 45.992 207.836 45.544C207.356 45.096 206.612 44.872 205.604 44.872C204.916 44.872 204.236 44.984 203.564 45.208C202.908 45.416 202.348 45.704 201.884 46.072L200.54 43.456C201.244 42.96 202.092 42.576 203.084 42.304C204.076 42.032 205.084 41.896 206.108 41.896C208.076 41.896 209.604 42.36 210.692 43.288C211.78 44.216 212.324 45.664 212.324 47.632V55H208.82ZM204.884 55.192C203.876 55.192 203.012 55.024 202.292 54.688C201.572 54.336 201.02 53.864 200.636 53.272C200.252 52.68 200.06 52.016 200.06 51.28C200.06 50.512 200.244 49.84 200.612 49.264C200.996 48.688 201.596 48.24 202.412 47.92C203.228 47.584 204.292 47.416 205.604 47.416H209.036V49.6H206.012C205.132 49.6 204.524 49.744 204.188 50.032C203.868 50.32 203.708 50.68 203.708 51.112C203.708 51.592 203.892 51.976 204.26 52.264C204.644 52.536 205.164 52.672 205.82 52.672C206.444 52.672 207.004 52.528 207.5 52.24C207.996 51.936 208.356 51.496 208.58 50.92L209.156 52.648C208.884 53.48 208.388 54.112 207.668 54.544C206.948 54.976 206.02 55.192 204.884 55.192ZM220.992 55.192C219.472 55.192 218.288 54.808 217.44 54.04C216.592 53.256 216.168 52.096 216.168 50.56V39.232H219.912V50.512C219.912 51.056 220.056 51.48 220.344 51.784C220.632 52.072 221.024 52.216 221.52 52.216C222.112 52.216 222.616 52.056 223.032 51.736L224.04 54.376C223.656 54.648 223.192 54.856 222.648 55C222.12 55.128 221.568 55.192 220.992 55.192ZM214.176 45.256V42.376H223.128V45.256H214.176ZM232.152 55.192C230.68 55.192 229.384 54.904 228.264 54.328C227.16 53.752 226.304 52.968 225.696 51.976C225.088 50.968 224.784 49.824 224.784 48.544C224.784 47.248 225.08 46.104 225.672 45.112C226.28 44.104 227.104 43.32 228.144 42.76C229.184 42.184 230.36 41.896 231.672 41.896C232.936 41.896 234.072 42.168 235.08 42.712C236.104 43.24 236.912 44.008 237.504 45.016C238.096 46.008 238.392 47.2 238.392 48.592C238.392 48.736 238.384 48.904 238.368 49.096C238.352 49.272 238.336 49.44 238.32 49.6H227.832V47.416H236.352L234.912 48.064C234.912 47.392 234.776 46.808 234.504 46.312C234.232 45.816 233.856 45.432 233.376 45.16C232.896 44.872 232.336 44.728 231.696 44.728C231.056 44.728 230.488 44.872 229.992 45.16C229.512 45.432 229.136 45.824 228.864 46.336C228.592 46.832 228.456 47.424 228.456 48.112V48.688C228.456 49.392 228.608 50.016 228.912 50.56C229.232 51.088 229.672 51.496 230.232 51.784C230.808 52.056 231.48 52.192 232.248 52.192C232.936 52.192 233.536 52.088 234.048 51.88C234.576 51.672 235.056 51.36 235.488 50.944L237.48 53.104C236.888 53.776 236.144 54.296 235.248 54.664C234.352 55.016 233.32 55.192 232.152 55.192Z" fill="black"/>
<path d="M39.0335 101V91.2H42.7015C43.5322 91.2 44.2462 91.3353 44.8435 91.606C45.4408 91.8673 45.8982 92.25 46.2155 92.754C46.5422 93.2487 46.7055 93.8507 46.7055 94.56C46.7055 95.2507 46.5422 95.848 46.2155 96.352C45.8982 96.8467 45.4408 97.2293 44.8435 97.5C44.2462 97.7707 43.5322 97.906 42.7015 97.906H39.6075L40.0695 97.416V101H39.0335ZM40.0695 97.5L39.6075 96.996H42.6735C43.6535 96.996 44.3955 96.786 44.8995 96.366C45.4128 95.9367 45.6695 95.3347 45.6695 94.56C45.6695 93.776 45.4128 93.1693 44.8995 92.74C44.3955 92.3107 43.6535 92.096 42.6735 92.096H39.6075L40.0695 91.606V97.5ZM51.8166 101.07C51.0513 101.07 50.3793 100.911 49.8006 100.594C49.2219 100.267 48.7693 99.824 48.4426 99.264C48.1159 98.6947 47.9526 98.046 47.9526 97.318C47.9526 96.59 48.1066 95.946 48.4146 95.386C48.7319 94.826 49.1613 94.3873 49.7026 94.07C50.2533 93.7433 50.8693 93.58 51.5506 93.58C52.2413 93.58 52.8526 93.7387 53.3846 94.056C53.9259 94.364 54.3506 94.8027 54.6586 95.372C54.9666 95.932 55.1206 96.5807 55.1206 97.318C55.1206 97.3647 55.1159 97.416 55.1066 97.472C55.1066 97.5187 55.1066 97.57 55.1066 97.626H48.7086V96.884H54.5746L54.1826 97.178C54.1826 96.646 54.0659 96.1747 53.8326 95.764C53.6086 95.344 53.3006 95.0173 52.9086 94.784C52.5166 94.5507 52.0639 94.434 51.5506 94.434C51.0466 94.434 50.5939 94.5507 50.1926 94.784C49.7913 95.0173 49.4786 95.344 49.2546 95.764C49.0306 96.184 48.9186 96.6647 48.9186 97.206V97.36C48.9186 97.92 49.0399 98.4147 49.2826 98.844C49.5346 99.264 49.8799 99.5953 50.3186 99.838C50.7666 100.071 51.2753 100.188 51.8446 100.188C52.2926 100.188 52.7079 100.109 53.0906 99.95C53.4826 99.7913 53.8186 99.5487 54.0986 99.222L54.6586 99.866C54.3319 100.258 53.9213 100.557 53.4266 100.762C52.9413 100.967 52.4046 101.07 51.8166 101.07ZM57.1438 101V93.65H58.0958V95.652L57.9978 95.302C58.2031 94.742 58.5485 94.3173 59.0338 94.028C59.5191 93.7293 60.1211 93.58 60.8398 93.58V94.546C60.8025 94.546 60.7651 94.546 60.7278 94.546C60.6905 94.5367 60.6531 94.532 60.6158 94.532C59.8411 94.532 59.2345 94.77 58.7958 95.246C58.3571 95.7127 58.1378 96.38 58.1378 97.248V101H57.1438ZM65.6372 101.07C64.9092 101.07 64.2559 100.911 63.6772 100.594C63.1079 100.267 62.6599 99.824 62.3332 99.264C62.0066 98.6947 61.8432 98.046 61.8432 97.318C61.8432 96.5807 62.0066 95.932 62.3332 95.372C62.6599 94.812 63.1079 94.3733 63.6772 94.056C64.2559 93.7387 64.9092 93.58 65.6372 93.58C66.2626 93.58 66.8272 93.7013 67.3312 93.944C67.8352 94.1867 68.2319 94.5507 68.5212 95.036L67.7792 95.54C67.5272 95.1667 67.2146 94.8913 66.8412 94.714C66.4679 94.5367 66.0619 94.448 65.6232 94.448C65.1006 94.448 64.6292 94.5693 64.2092 94.812C63.7892 95.0453 63.4579 95.3767 63.2152 95.806C62.9726 96.2353 62.8512 96.7393 62.8512 97.318C62.8512 97.8967 62.9726 98.4007 63.2152 98.83C63.4579 99.2593 63.7892 99.5953 64.2092 99.838C64.6292 100.071 65.1006 100.188 65.6232 100.188C66.0619 100.188 66.4679 100.099 66.8412 99.922C67.2146 99.7447 67.5272 99.474 67.7792 99.11L68.5212 99.614C68.2319 100.09 67.8352 100.454 67.3312 100.706C66.8272 100.949 66.2626 101.07 65.6372 101.07ZM73.4728 101.07C72.7075 101.07 72.0355 100.911 71.4568 100.594C70.8782 100.267 70.4255 99.824 70.0988 99.264C69.7722 98.6947 69.6088 98.046 69.6088 97.318C69.6088 96.59 69.7628 95.946 70.0708 95.386C70.3882 94.826 70.8175 94.3873 71.3588 94.07C71.9095 93.7433 72.5255 93.58 73.2068 93.58C73.8975 93.58 74.5088 93.7387 75.0408 94.056C75.5822 94.364 76.0068 94.8027 76.3148 95.372C76.6228 95.932 76.7768 96.5807 76.7768 97.318C76.7768 97.3647 76.7722 97.416 76.7628 97.472C76.7628 97.5187 76.7628 97.57 76.7628 97.626H70.3648V96.884H76.2308L75.8388 97.178C75.8388 96.646 75.7222 96.1747 75.4888 95.764C75.2648 95.344 74.9568 95.0173 74.5648 94.784C74.1728 94.5507 73.7202 94.434 73.2068 94.434C72.7028 94.434 72.2502 94.5507 71.8488 94.784C71.4475 95.0173 71.1348 95.344 70.9108 95.764C70.6868 96.184 70.5748 96.6647 70.5748 97.206V97.36C70.5748 97.92 70.6962 98.4147 70.9388 98.844C71.1908 99.264 71.5362 99.5953 71.9748 99.838C72.4228 100.071 72.9315 100.188 73.5008 100.188C73.9488 100.188 74.3642 100.109 74.7468 99.95C75.1388 99.7913 75.4748 99.5487 75.7548 99.222L76.3148 99.866C75.9882 100.258 75.5775 100.557 75.0828 100.762C74.5975 100.967 74.0608 101.07 73.4728 101.07ZM82.5521 93.58C83.1494 93.58 83.6721 93.6967 84.1201 93.93C84.5774 94.154 84.9321 94.4993 85.1841 94.966C85.4454 95.4327 85.5761 96.0207 85.5761 96.73V101H84.5821V96.828C84.5821 96.0533 84.3861 95.47 83.9941 95.078C83.6114 94.6767 83.0701 94.476 82.3701 94.476C81.8474 94.476 81.3901 94.5833 80.9981 94.798C80.6154 95.0033 80.3167 95.3067 80.1021 95.708C79.8967 96.1 79.7941 96.576 79.7941 97.136V101H78.8001V93.65H79.7521V95.666L79.5981 95.288C79.8314 94.756 80.2047 94.3407 80.7181 94.042C81.2314 93.734 81.8427 93.58 82.5521 93.58ZM90.585 101.07C89.8943 101.07 89.3623 100.883 88.989 100.51C88.6157 100.137 88.429 99.6093 88.429 98.928V92.026H89.423V98.872C89.423 99.3013 89.5303 99.6327 89.745 99.866C89.969 100.099 90.2863 100.216 90.697 100.216C91.1357 100.216 91.4997 100.09 91.789 99.838L92.139 100.552C91.943 100.729 91.705 100.86 91.425 100.944C91.1543 101.028 90.8743 101.07 90.585 101.07ZM87.113 94.476V93.65H91.663V94.476H87.113Z" fill="#848484"/>
<path d="M38.2421 127.021L38.2643 110.222L45.5363 110.231C47.0403 110.233 48.336 110.483 49.4233 110.98C50.5107 111.462 51.3498 112.159 51.9406 113.072C52.5313 113.984 52.8259 115.073 52.8242 116.337C52.8226 117.585 52.5252 118.664 51.9319 119.576C51.3388 120.471 50.4978 121.158 49.4092 121.636C48.3206 122.115 47.0243 122.353 45.5203 122.351L40.4083 122.344L42.1385 120.643L42.1301 127.027L38.2421 127.021ZM48.9221 127.036L44.7301 120.934L48.8821 120.94L53.1221 127.041L48.9221 127.036ZM42.1379 121.075L40.4124 119.248L45.3084 119.255C46.5084 119.256 47.4047 119.002 47.9974 118.49C48.5901 117.963 48.887 117.244 48.8882 116.332C48.8895 115.404 48.5944 114.683 48.0031 114.17C47.4118 113.658 46.5161 113.4 45.3161 113.399L40.4201 113.392L42.1506 111.547L42.1379 121.075ZM62.0342 127.245C60.5622 127.243 59.2666 126.953 58.1474 126.376C57.0441 125.798 56.1892 125.013 55.5825 124.02C54.9758 123.012 54.6733 121.867 54.675 120.587C54.6768 119.291 54.9743 118.148 55.5676 117.156C56.1769 116.149 57.002 115.366 58.0427 114.808C59.0835 114.233 60.2598 113.947 61.5718 113.948C62.8358 113.95 63.9715 114.224 64.9788 114.769C66.0021 115.298 66.809 116.067 67.3997 117.076C67.9904 118.069 68.2848 119.261 68.283 120.653C68.2828 120.797 68.2746 120.965 68.2583 121.157C68.2421 121.333 68.2258 121.501 68.2096 121.661L57.7216 121.647L57.7245 119.463L66.2445 119.475L64.8037 120.121C64.8046 119.449 64.6693 118.864 64.398 118.368C64.1266 117.872 63.7512 117.487 63.2715 117.215C62.7919 116.926 62.2321 116.781 61.5921 116.78C60.9521 116.78 60.3839 116.923 59.8875 117.21C59.4072 117.482 59.0306 117.873 58.758 118.385C58.4853 118.88 58.3485 119.472 58.3476 120.16L58.3468 120.736C58.3459 121.44 58.4971 122.064 58.8004 122.609C59.1197 123.137 59.5591 123.546 60.1187 123.834C60.6944 124.107 61.3662 124.244 62.1342 124.245C62.8222 124.246 63.4223 124.143 63.9346 123.936C64.4629 123.728 64.9433 123.417 65.3759 123.001L67.365 125.164C66.7721 125.835 66.0274 126.354 65.1309 126.721C64.2345 127.072 63.2022 127.247 62.0342 127.245ZM78.3988 127.267C77.3108 127.265 76.3592 127.024 75.5438 126.543C74.7284 126.062 74.0894 125.333 73.6267 124.356C73.18 123.364 72.9577 122.115 72.9596 120.611C72.9617 119.091 73.1793 117.844 73.6126 116.868C74.0459 115.893 74.6709 115.166 75.4875 114.687C76.3041 114.208 77.2805 113.969 78.4165 113.971C79.6325 113.972 80.7201 114.254 81.6793 114.815C82.6546 115.36 83.4216 116.129 83.9803 117.122C84.555 118.115 84.8414 119.283 84.8396 120.627C84.8378 121.987 84.5483 123.163 83.971 124.154C83.4097 125.145 82.6406 125.912 81.6639 126.455C80.7032 126.998 79.6148 127.268 78.3988 127.267ZM70.7609 131.721L70.7842 114.153L74.3602 114.157L74.3567 116.797L74.2796 120.637L74.5146 124.454L74.5049 131.726L70.7609 131.721ZM77.7549 124.194C78.3789 124.195 78.9311 124.051 79.4115 123.764C79.9079 123.477 80.3004 123.069 80.5891 122.542C80.8938 121.998 81.0467 121.358 81.0476 120.622C81.0486 119.87 80.8975 119.23 80.5942 118.702C80.3069 118.173 79.9154 117.765 79.4198 117.476C78.9402 117.187 78.3884 117.043 77.7644 117.042C77.1404 117.041 76.5802 117.184 76.0838 117.472C75.5874 117.759 75.1949 118.166 74.9062 118.694C74.6175 119.222 74.4726 119.861 74.4716 120.613C74.4707 121.349 74.6138 121.99 74.9011 122.534C75.1884 123.062 75.5799 123.471 76.0755 123.76C76.5711 124.048 77.1309 124.193 77.7549 124.194ZM87.3374 127.087L87.361 109.279L91.105 109.283L91.0814 127.091L87.3374 127.087ZM94.5561 127.096L94.5732 114.184L98.3172 114.189L98.3001 127.101L94.5561 127.096ZM96.4476 112.387C95.7596 112.386 95.1999 112.185 94.7684 111.784C94.337 111.384 94.1216 110.887 94.1224 110.295C94.1232 109.703 94.3398 109.208 94.7724 108.808C95.2049 108.409 95.7652 108.21 96.4532 108.211C97.1412 108.211 97.7009 108.404 98.1324 108.789C98.5639 109.157 98.7793 109.638 98.7785 110.23C98.7777 110.854 98.561 111.373 98.1284 111.789C97.7119 112.188 97.1516 112.388 96.4476 112.387ZM108.183 127.306C106.711 127.304 105.415 127.014 104.296 126.437C103.193 125.86 102.338 125.074 101.731 124.082C101.124 123.073 100.822 121.928 100.823 120.648C100.825 119.352 101.123 118.209 101.716 117.218C102.325 116.21 103.15 115.427 104.191 114.869C105.232 114.294 106.408 114.008 107.72 114.01C108.984 114.011 110.12 114.285 111.127 114.83C112.15 115.359 112.957 116.128 113.548 117.137C114.139 118.13 114.433 119.322 114.431 120.714C114.431 120.858 114.423 121.026 114.407 121.218C114.39 121.394 114.374 121.562 114.358 121.722L103.87 121.708L103.873 119.524L112.393 119.536L110.952 120.182C110.953 119.51 110.818 118.926 110.546 118.429C110.275 117.933 109.9 117.548 109.42 117.276C108.94 116.987 108.38 116.842 107.74 116.842C107.1 116.841 106.532 116.984 106.036 117.271C105.556 117.543 105.179 117.934 104.906 118.446C104.634 118.941 104.497 119.533 104.496 120.221L104.495 120.797C104.494 121.501 104.645 122.125 104.949 122.67C105.268 123.198 105.708 123.607 106.267 123.896C106.843 124.168 107.515 124.305 108.283 124.306C108.971 124.307 109.571 124.204 110.083 123.997C110.611 123.789 111.092 123.478 111.524 123.063L113.513 125.225C112.92 125.896 112.176 126.415 111.279 126.782C110.383 127.133 109.351 127.308 108.183 127.306ZM121.259 127.323C120.155 127.322 119.091 127.193 118.068 126.935C117.06 126.662 116.261 126.325 115.669 125.924L116.921 123.238C117.512 123.606 118.208 123.911 119.007 124.152C119.823 124.378 120.623 124.491 121.407 124.492C122.271 124.493 122.879 124.39 123.231 124.182C123.6 123.975 123.784 123.687 123.785 123.319C123.785 123.015 123.641 122.791 123.353 122.646C123.082 122.486 122.714 122.365 122.25 122.285C121.786 122.204 121.274 122.123 120.714 122.043C120.17 121.962 119.618 121.857 119.059 121.729C118.499 121.584 117.987 121.375 117.523 121.103C117.06 120.83 116.684 120.461 116.397 119.997C116.126 119.533 115.99 118.932 115.991 118.196C115.992 117.38 116.225 116.661 116.69 116.037C117.171 115.414 117.86 114.927 118.756 114.576C119.653 114.209 120.725 114.027 121.973 114.028C122.853 114.03 123.749 114.127 124.66 114.32C125.572 114.513 126.332 114.794 126.939 115.163L125.688 117.825C125.064 117.456 124.433 117.208 123.793 117.079C123.169 116.934 122.561 116.861 121.969 116.86C121.137 116.859 120.529 116.97 120.145 117.194C119.76 117.417 119.568 117.705 119.568 118.057C119.567 118.377 119.703 118.617 119.975 118.778C120.262 118.938 120.638 119.067 121.102 119.163C121.566 119.26 122.07 119.349 122.614 119.429C123.174 119.494 123.733 119.599 124.293 119.743C124.853 119.888 125.357 120.097 125.804 120.369C126.268 120.626 126.644 120.987 126.931 121.451C127.218 121.899 127.362 122.492 127.361 123.228C127.36 124.028 127.119 124.739 126.638 125.363C126.157 125.97 125.46 126.449 124.548 126.8C123.651 127.151 122.555 127.325 121.259 127.323ZM131.093 118.72C130.453 118.72 129.901 118.503 129.438 118.07C128.99 117.622 128.767 117.053 128.768 116.365C128.769 115.677 128.993 115.126 129.442 114.71C129.907 114.279 130.459 114.064 131.099 114.064C131.755 114.065 132.307 114.282 132.754 114.715C133.201 115.131 133.425 115.684 133.424 116.372C133.423 117.06 133.198 117.627 132.749 118.075C132.301 118.506 131.749 118.721 131.093 118.72ZM131.081 127.336C130.441 127.336 129.89 127.119 129.426 126.686C128.979 126.238 128.755 125.669 128.756 124.981C128.757 124.293 128.982 123.742 129.431 123.326C129.895 122.895 130.447 122.68 131.087 122.68C131.743 122.681 132.295 122.898 132.743 123.331C133.19 123.747 133.413 124.3 133.412 124.988C133.411 125.676 133.187 126.243 132.738 126.691C132.29 127.122 131.737 127.337 131.081 127.336ZM151.139 112.675L147.944 114.423L147.945 113.799L151.135 115.531L149.956 117.497L146.983 115.718L147.319 115.502L147.363 118.838L145.107 118.835L145.135 115.499L145.471 115.716L142.492 117.488L141.343 115.518L144.537 113.794L144.536 114.418L141.347 112.662L142.501 110.696L145.475 112.5L145.139 112.691L145.119 109.355L147.375 109.358L147.323 112.694L146.987 112.502L149.965 110.705L151.139 112.675ZM162.014 112.689L158.819 114.437L158.82 113.813L162.01 115.545L160.831 117.512L157.858 115.732L158.194 115.516L158.238 118.852L155.982 118.849L156.01 115.513L156.346 115.73L153.367 117.502L152.218 115.532L155.412 113.809L155.411 114.433L152.222 112.676L153.376 110.71L156.35 112.514L156.014 112.705L155.994 109.369L158.25 109.372L158.198 112.708L157.862 112.516L160.84 110.72L162.014 112.689ZM166.383 127.191L177.878 110.406L180.734 110.41L169.239 127.195L166.383 127.191ZM167.858 119.465C167.042 119.464 166.322 119.279 165.698 118.91C165.075 118.525 164.58 117.989 164.212 117.3C163.861 116.596 163.687 115.772 163.688 114.828C163.689 113.884 163.866 113.068 164.219 112.38C164.588 111.693 165.085 111.157 165.709 110.774C166.334 110.391 167.054 110.2 167.87 110.201C168.686 110.202 169.406 110.395 170.029 110.78C170.653 111.165 171.14 111.702 171.491 112.39C171.842 113.078 172.017 113.895 172.016 114.839C172.015 115.783 171.837 116.606 171.484 117.31C171.132 117.998 170.643 118.533 170.018 118.916C169.394 119.283 168.674 119.466 167.858 119.465ZM167.86 117.497C168.388 117.498 168.813 117.282 169.133 116.851C169.454 116.403 169.615 115.732 169.616 114.836C169.617 113.94 169.458 113.275 169.138 112.843C168.819 112.394 168.395 112.17 167.867 112.169C167.355 112.169 166.931 112.392 166.594 112.839C166.274 113.271 166.113 113.935 166.112 114.831C166.111 115.711 166.27 116.375 166.589 116.823C166.925 117.272 167.348 117.497 167.86 117.497ZM179.247 127.4C178.447 127.399 177.727 127.214 177.088 126.845C176.464 126.461 175.977 125.924 175.626 125.235C175.275 124.531 175.1 123.707 175.101 122.763C175.103 121.819 175.28 121.003 175.633 120.315C175.985 119.628 176.474 119.093 177.099 118.709C177.739 118.326 178.459 118.135 179.259 118.136C180.091 118.137 180.819 118.33 181.443 118.715C182.066 119.1 182.553 119.637 182.905 120.325C183.256 121.014 183.431 121.83 183.429 122.774C183.428 123.718 183.251 124.542 182.898 125.245C182.545 125.933 182.056 126.468 181.432 126.851C180.807 127.218 180.079 127.401 179.247 127.4ZM179.25 125.432C179.778 125.433 180.202 125.218 180.523 124.786C180.843 124.338 181.004 123.667 181.005 122.771C181.006 121.891 180.847 121.226 180.528 120.778C180.208 120.33 179.785 120.105 179.257 120.104C178.745 120.104 178.32 120.327 177.984 120.775C177.663 121.206 177.502 121.87 177.501 122.766C177.5 123.662 177.659 124.334 177.979 124.783C178.314 125.215 178.738 125.432 179.25 125.432Z" fill="black"/>
<path d="M334.04 110V101.04L335.02 102.02H332.08V100.2H336.308V110H334.04ZM341.343 110.168C340.662 110.168 339.985 110.079 339.313 109.902C338.65 109.715 338.081 109.454 337.605 109.118L338.501 107.382C338.874 107.653 339.304 107.867 339.789 108.026C340.284 108.185 340.783 108.264 341.287 108.264C341.856 108.264 342.304 108.152 342.631 107.928C342.958 107.704 343.121 107.391 343.121 106.99C343.121 106.738 343.056 106.514 342.925 106.318C342.794 106.122 342.561 105.973 342.225 105.87C341.898 105.767 341.436 105.716 340.839 105.716H338.333L338.837 100.2H344.815V102.02H339.649L340.825 100.984L340.475 104.918L339.299 103.882H341.371C342.342 103.882 343.121 104.017 343.709 104.288C344.306 104.549 344.74 104.909 345.011 105.366C345.282 105.823 345.417 106.341 345.417 106.92C345.417 107.499 345.272 108.035 344.983 108.53C344.694 109.015 344.246 109.412 343.639 109.72C343.042 110.019 342.276 110.168 341.343 110.168ZM347.625 110.112C347.252 110.112 346.93 109.986 346.659 109.734C346.398 109.473 346.267 109.141 346.267 108.74C346.267 108.339 346.398 108.017 346.659 107.774C346.93 107.522 347.252 107.396 347.625 107.396C348.008 107.396 348.33 107.522 348.591 107.774C348.852 108.017 348.983 108.339 348.983 108.74C348.983 109.141 348.852 109.473 348.591 109.734C348.33 109.986 348.008 110.112 347.625 110.112ZM353.316 110.168C352.634 110.168 351.958 110.079 351.286 109.902C350.614 109.715 350.044 109.454 349.578 109.118L350.46 107.382C350.833 107.653 351.267 107.867 351.762 108.026C352.256 108.185 352.756 108.264 353.26 108.264C353.829 108.264 354.277 108.152 354.604 107.928C354.93 107.704 355.094 107.396 355.094 107.004C355.094 106.631 354.949 106.337 354.66 106.122C354.37 105.907 353.904 105.8 353.26 105.8H352.224V104.302L354.954 101.208L355.206 102.02H350.068V100.2H356.928V101.67L354.212 104.764L353.064 104.106H353.722C354.926 104.106 355.836 104.377 356.452 104.918C357.068 105.459 357.376 106.155 357.376 107.004C357.376 107.555 357.231 108.073 356.942 108.558C356.652 109.034 356.209 109.421 355.612 109.72C355.014 110.019 354.249 110.168 353.316 110.168ZM359.7 110L366.392 100.2H368.058L361.366 110H359.7ZM360.554 105.492C360.078 105.492 359.658 105.385 359.294 105.17C358.93 104.946 358.641 104.633 358.426 104.232C358.221 103.821 358.118 103.341 358.118 102.79C358.118 102.239 358.221 101.763 358.426 101.362C358.641 100.961 358.93 100.648 359.294 100.424C359.658 100.2 360.078 100.088 360.554 100.088C361.03 100.088 361.45 100.2 361.814 100.424C362.178 100.648 362.463 100.961 362.668 101.362C362.874 101.763 362.976 102.239 362.976 102.79C362.976 103.341 362.874 103.821 362.668 104.232C362.463 104.633 362.178 104.946 361.814 105.17C361.45 105.385 361.03 105.492 360.554 105.492ZM360.554 104.344C360.862 104.344 361.11 104.218 361.296 103.966C361.483 103.705 361.576 103.313 361.576 102.79C361.576 102.267 361.483 101.88 361.296 101.628C361.11 101.367 360.862 101.236 360.554 101.236C360.256 101.236 360.008 101.367 359.812 101.628C359.626 101.88 359.532 102.267 359.532 102.79C359.532 103.303 359.626 103.691 359.812 103.952C360.008 104.213 360.256 104.344 360.554 104.344ZM367.204 110.112C366.738 110.112 366.318 110.005 365.944 109.79C365.58 109.566 365.296 109.253 365.09 108.852C364.885 108.441 364.782 107.961 364.782 107.41C364.782 106.859 364.885 106.383 365.09 105.982C365.296 105.581 365.58 105.268 365.944 105.044C366.318 104.82 366.738 104.708 367.204 104.708C367.69 104.708 368.114 104.82 368.478 105.044C368.842 105.268 369.127 105.581 369.332 105.982C369.538 106.383 369.64 106.859 369.64 107.41C369.64 107.961 369.538 108.441 369.332 108.852C369.127 109.253 368.842 109.566 368.478 109.79C368.114 110.005 367.69 110.112 367.204 110.112ZM367.204 108.964C367.512 108.964 367.76 108.838 367.946 108.586C368.133 108.325 368.226 107.933 368.226 107.41C368.226 106.897 368.133 106.509 367.946 106.248C367.76 105.987 367.512 105.856 367.204 105.856C366.906 105.856 366.658 105.987 366.462 106.248C366.276 106.5 366.182 106.887 366.182 107.41C366.182 107.933 366.276 108.325 366.462 108.586C366.658 108.838 366.906 108.964 367.204 108.964Z" fill="#008C30"/>
<path d="M325.302 108.889L325.302 101M325.302 101L323 103.958M325.302 101L327.604 103.958" stroke="#008C30" stroke-width="2" stroke-linecap="round" stroke-linejoin="round"/>
<defs>
<filter id="filter0_bd_162_16" x="0" y="0" width="409" height="171" filterUnits="userSpaceOnUse" color-interpolation-filters="sRGB">
<feFlood flood-opacity="0" result="BackgroundImageFix"/>
<feGaussianBlur in="BackgroundImageFix" stdDeviation="2.5"/>
<feComposite in2="SourceAlpha" operator="in" result="effect1_backgroundBlur_162_16"/>
<feColorMatrix in="SourceAlpha" type="matrix" values="0 0 0 0 0 0 0 0 0 0 0 0 0 0 0 0 0 0 127 0" result="hardAlpha"/>
<feOffset dy="4"/>
<feGaussianBlur stdDeviation="7.5"/>
<feComposite in2="hardAlpha" operator="out"/>
<feColorMatrix type="matrix" values="0 0 0 0 0 0 0 0 0 0 0 0 0 0 0 0 0 0 0.25 0"/>
<feBlend mode="normal" in2="effect1_backgroundBlur_162_16" result="effect2_dropShadow_162_16"/>
<feBlend mode="normal" in="SourceGraphic" in2="effect2_dropShadow_162_16" result="shape"/>
</filter>
<linearGradient id="paint0_linear_162_16" x1="66" y1="6.00001" x2="393" y2="166.5" gradientUnits="userSpaceOnUse">
<stop stop-color="white"/>
<stop offset="1" stop-color="white" stop-opacity="0"/>
</linearGradient>
</defs>
</svg>
