<svg width="409" height="171" viewBox="0 0 409 171" fill="none" xmlns="http://www.w3.org/2000/svg">
<g filter="url(#filter0_bd_162_2)">
<rect x="16" y="12" width="377" height="139" rx="15" fill="white" fill-opacity="0.15" shape-rendering="crispEdges"/>
<rect x="15.5" y="11.5" width="378" height="140" rx="15.5" stroke="url(#paint0_linear_162_2)" shape-rendering="crispEdges"/>
</g>
<path d="M200 104C202.833 98.5 209.7 86.9 214.5 84.5C220.5 81.5 234.5 89.5 240 89.5C245.5 89.5 261 70.5 267.5 70C274 69.5 283 64 299.5 70C316 76 322.5 59.5 341 52.5C350.5 47.75 367.5 43.5 370.5 32" stroke="#008C30" stroke-width="2.5" stroke-linecap="round"/>
<path d="M41.8987 55.288C40.5547 55.288 39.2667 55.112 38.0347 54.76C36.8027 54.392 35.8107 53.92 35.0587 53.344L36.3787 50.416C37.0987 50.928 37.9467 51.352 38.9227 51.688C39.9147 52.008 40.9147 52.168 41.9227 52.168C42.6907 52.168 43.3067 52.096 43.7707 51.952C44.2507 51.792 44.6027 51.576 44.8267 51.304C45.0507 51.032 45.1627 50.72 45.1627 50.368C45.1627 49.92 44.9867 49.568 44.6347 49.312C44.2827 49.04 43.8187 48.824 43.2427 48.664C42.6667 48.488 42.0267 48.328 41.3227 48.184C40.6347 48.024 39.9387 47.832 39.2347 47.608C38.5467 47.384 37.9147 47.096 37.3387 46.744C36.7627 46.392 36.2907 45.928 35.9227 45.352C35.5707 44.776 35.3947 44.04 35.3947 43.144C35.3947 42.184 35.6507 41.312 36.1627 40.528C36.6907 39.728 37.4747 39.096 38.5147 38.632C39.5707 38.152 40.8907 37.912 42.4747 37.912C43.5307 37.912 44.5707 38.04 45.5947 38.296C46.6187 38.536 47.5227 38.904 48.3067 39.4L47.1067 42.352C46.3227 41.904 45.5387 41.576 44.7547 41.368C43.9707 41.144 43.2027 41.032 42.4507 41.032C41.6987 41.032 41.0827 41.12 40.6027 41.296C40.1227 41.472 39.7787 41.704 39.5707 41.992C39.3627 42.264 39.2587 42.584 39.2587 42.952C39.2587 43.384 39.4347 43.736 39.7867 44.008C40.1387 44.264 40.6027 44.472 41.1787 44.632C41.7547 44.792 42.3867 44.952 43.0747 45.112C43.7787 45.272 44.4747 45.456 45.1627 45.664C45.8667 45.872 46.5067 46.152 47.0827 46.504C47.6587 46.856 48.1227 47.32 48.4747 47.896C48.8427 48.472 49.0267 49.2 49.0267 50.08C49.0267 51.024 48.7627 51.888 48.2347 52.672C47.7067 53.456 46.9147 54.088 45.8587 54.568C44.8187 55.048 43.4987 55.288 41.8987 55.288ZM59.3394 55V52.48L59.0994 51.928V47.416C59.0994 46.616 58.8514 45.992 58.3554 45.544C57.8754 45.096 57.1314 44.872 56.1234 44.872C55.4354 44.872 54.7554 44.984 54.0834 45.208C53.4274 45.416 52.8674 45.704 52.4034 46.072L51.0594 43.456C51.7634 42.96 52.6114 42.576 53.6034 42.304C54.5954 42.032 55.6034 41.896 56.6274 41.896C58.5954 41.896 60.1234 42.36 61.2114 43.288C62.2994 44.216 62.8434 45.664 62.8434 47.632V55H59.3394ZM55.4034 55.192C54.3954 55.192 53.5314 55.024 52.8114 54.688C52.0914 54.336 51.5394 53.864 51.1554 53.272C50.7714 52.68 50.5794 52.016 50.5794 51.28C50.5794 50.512 50.7634 49.84 51.1314 49.264C51.5154 48.688 52.1154 48.24 52.9314 47.92C53.7474 47.584 54.8114 47.416 56.1234 47.416H59.5554V49.6H56.5314C55.6514 49.6 55.0434 49.744 54.7074 50.032C54.3874 50.32 54.2274 50.68 54.2274 51.112C54.2274 51.592 54.4114 51.976 54.7794 52.264C55.1634 52.536 55.6834 52.672 56.3394 52.672C56.9634 52.672 57.5234 52.528 58.0194 52.24C58.5154 51.936 58.8754 51.496 59.0994 50.92L59.6754 52.648C59.4034 53.48 58.9074 54.112 58.1874 54.544C57.4674 54.976 56.5394 55.192 55.4034 55.192ZM66.2319 55V37.192H69.9759V55H66.2319ZM79.8587 55.192C78.3867 55.192 77.0907 54.904 75.9707 54.328C74.8667 53.752 74.0107 52.968 73.4027 51.976C72.7947 50.968 72.4907 49.824 72.4907 48.544C72.4907 47.248 72.7867 46.104 73.3787 45.112C73.9867 44.104 74.8107 43.32 75.8507 42.76C76.8907 42.184 78.0667 41.896 79.3787 41.896C80.6427 41.896 81.7787 42.168 82.7867 42.712C83.8107 43.24 84.6187 44.008 85.2107 45.016C85.8027 46.008 86.0987 47.2 86.0987 48.592C86.0987 48.736 86.0907 48.904 86.0747 49.096C86.0587 49.272 86.0427 49.44 86.0267 49.6H75.5387V47.416H84.0587L82.6187 48.064C82.6187 47.392 82.4827 46.808 82.2107 46.312C81.9387 45.816 81.5627 45.432 81.0827 45.16C80.6027 44.872 80.0427 44.728 79.4027 44.728C78.7627 44.728 78.1947 44.872 77.6987 45.16C77.2187 45.432 76.8427 45.824 76.5707 46.336C76.2987 46.832 76.1627 47.424 76.1627 48.112V48.688C76.1627 49.392 76.3147 50.016 76.6187 50.56C76.9387 51.088 77.3787 51.496 77.9387 51.784C78.5147 52.056 79.1867 52.192 79.9547 52.192C80.6427 52.192 81.2427 52.088 81.7547 51.88C82.2827 51.672 82.7627 51.36 83.1947 50.944L85.1867 53.104C84.5947 53.776 83.8507 54.296 82.9547 54.664C82.0587 55.016 81.0267 55.192 79.8587 55.192ZM92.9353 55.192C91.8313 55.192 90.7673 55.064 89.7433 54.808C88.7353 54.536 87.9353 54.2 87.3433 53.8L88.5913 51.112C89.1833 51.48 89.8793 51.784 90.6793 52.024C91.4953 52.248 92.2953 52.36 93.0793 52.36C93.9433 52.36 94.5513 52.256 94.9033 52.048C95.2713 51.84 95.4553 51.552 95.4553 51.184C95.4553 50.88 95.3113 50.656 95.0233 50.512C94.7513 50.352 94.3833 50.232 93.9193 50.152C93.4553 50.072 92.9433 49.992 92.3833 49.912C91.8393 49.832 91.2873 49.728 90.7273 49.6C90.1673 49.456 89.6553 49.248 89.1913 48.976C88.7273 48.704 88.3513 48.336 88.0633 47.872C87.7913 47.408 87.6553 46.808 87.6553 46.072C87.6553 45.256 87.8873 44.536 88.3513 43.912C88.8313 43.288 89.5193 42.8 90.4153 42.448C91.3113 42.08 92.3833 41.896 93.6313 41.896C94.5113 41.896 95.4073 41.992 96.3193 42.184C97.2313 42.376 97.9913 42.656 98.5993 43.024L97.3513 45.688C96.7273 45.32 96.0953 45.072 95.4553 44.944C94.8313 44.8 94.2233 44.728 93.6313 44.728C92.7993 44.728 92.1913 44.84 91.8073 45.064C91.4233 45.288 91.2313 45.576 91.2313 45.928C91.2313 46.248 91.3673 46.488 91.6393 46.648C91.9273 46.808 92.3033 46.936 92.7673 47.032C93.2313 47.128 93.7353 47.216 94.2793 47.296C94.8393 47.36 95.3993 47.464 95.9593 47.608C96.5193 47.752 97.0233 47.96 97.4713 48.232C97.9353 48.488 98.3113 48.848 98.5993 49.312C98.8873 49.76 99.0313 50.352 99.0313 51.088C99.0313 51.888 98.7913 52.6 98.3113 53.224C97.8313 53.832 97.1353 54.312 96.2233 54.664C95.3273 55.016 94.2313 55.192 92.9353 55.192Z" fill="black"/>
<path d="M35.8069 101V91.2H39.4749C40.3056 91.2 41.0196 91.3353 41.6169 91.606C42.2143 91.8673 42.6716 92.25 42.9889 92.754C43.3156 93.2487 43.4789 93.8507 43.4789 94.56C43.4789 95.2507 43.3156 95.848 42.9889 96.352C42.6716 96.8467 42.2143 97.2293 41.6169 97.5C41.0196 97.7613 40.3056 97.892 39.4749 97.892H36.3809L36.8429 97.416V101H35.8069ZM42.4989 101L39.9789 97.444H41.0989L43.6329 101H42.4989ZM36.8429 97.5L36.3809 97.01H39.4469C40.4269 97.01 41.1689 96.7953 41.6729 96.366C42.1863 95.9367 42.4429 95.3347 42.4429 94.56C42.4429 93.776 42.1863 93.1693 41.6729 92.74C41.1689 92.3107 40.4269 92.096 39.4469 92.096H36.3809L36.8429 91.606V97.5ZM48.8361 101.07C48.0708 101.07 47.3988 100.911 46.8201 100.594C46.2415 100.267 45.7888 99.824 45.4621 99.264C45.1355 98.6947 44.9721 98.046 44.9721 97.318C44.9721 96.59 45.1261 95.946 45.4341 95.386C45.7515 94.826 46.1808 94.3873 46.7221 94.07C47.2728 93.7433 47.8888 93.58 48.5701 93.58C49.2608 93.58 49.8721 93.7387 50.4041 94.056C50.9455 94.364 51.3701 94.8027 51.6781 95.372C51.9861 95.932 52.1401 96.5807 52.1401 97.318C52.1401 97.3647 52.1355 97.416 52.1261 97.472C52.1261 97.5187 52.1261 97.57 52.1261 97.626H45.7281V96.884H51.5941L51.2021 97.178C51.2021 96.646 51.0855 96.1747 50.8521 95.764C50.6281 95.344 50.3201 95.0173 49.9281 94.784C49.5361 94.5507 49.0835 94.434 48.5701 94.434C48.0661 94.434 47.6135 94.5507 47.2121 94.784C46.8108 95.0173 46.4981 95.344 46.2741 95.764C46.0501 96.184 45.9381 96.6647 45.9381 97.206V97.36C45.9381 97.92 46.0595 98.4147 46.3021 98.844C46.5541 99.264 46.8995 99.5953 47.3381 99.838C47.7861 100.071 48.2948 100.188 48.8641 100.188C49.3121 100.188 49.7275 100.109 50.1101 99.95C50.5021 99.7913 50.8381 99.5487 51.1181 99.222L51.6781 99.866C51.3515 100.258 50.9408 100.557 50.4461 100.762C49.9608 100.967 49.4241 101.07 48.8361 101.07ZM55.9166 101L52.6546 93.65H53.6906L56.6866 100.468H56.1966L59.2346 93.65H60.2146L56.9386 101H55.9166ZM64.5314 101.07C63.7661 101.07 63.0941 100.911 62.5154 100.594C61.9368 100.267 61.4841 99.824 61.1574 99.264C60.8308 98.6947 60.6674 98.046 60.6674 97.318C60.6674 96.59 60.8214 95.946 61.1294 95.386C61.4468 94.826 61.8761 94.3873 62.4174 94.07C62.9681 93.7433 63.5841 93.58 64.2654 93.58C64.9561 93.58 65.5674 93.7387 66.0994 94.056C66.6408 94.364 67.0654 94.8027 67.3734 95.372C67.6814 95.932 67.8354 96.5807 67.8354 97.318C67.8354 97.3647 67.8308 97.416 67.8214 97.472C67.8214 97.5187 67.8214 97.57 67.8214 97.626H61.4234V96.884H67.2894L66.8974 97.178C66.8974 96.646 66.7808 96.1747 66.5474 95.764C66.3234 95.344 66.0154 95.0173 65.6234 94.784C65.2314 94.5507 64.7788 94.434 64.2654 94.434C63.7614 94.434 63.3088 94.5507 62.9074 94.784C62.5061 95.0173 62.1934 95.344 61.9694 95.764C61.7454 96.184 61.6334 96.6647 61.6334 97.206V97.36C61.6334 97.92 61.7548 98.4147 61.9974 98.844C62.2494 99.264 62.5948 99.5953 63.0334 99.838C63.4814 100.071 63.9901 100.188 64.5594 100.188C65.0074 100.188 65.4228 100.109 65.8054 99.95C66.1974 99.7913 66.5334 99.5487 66.8134 99.222L67.3734 99.866C67.0468 100.258 66.6361 100.557 66.1414 100.762C65.6561 100.967 65.1194 101.07 64.5314 101.07ZM73.6107 93.58C74.208 93.58 74.7307 93.6967 75.1787 93.93C75.636 94.154 75.9907 94.4993 76.2427 94.966C76.504 95.4327 76.6347 96.0207 76.6347 96.73V101H75.6407V96.828C75.6407 96.0533 75.4447 95.47 75.0527 95.078C74.67 94.6767 74.1287 94.476 73.4287 94.476C72.906 94.476 72.4487 94.5833 72.0567 94.798C71.674 95.0033 71.3753 95.3067 71.1607 95.708C70.9553 96.1 70.8527 96.576 70.8527 97.136V101H69.8587V93.65H70.8107V95.666L70.6567 95.288C70.89 94.756 71.2633 94.3407 71.7767 94.042C72.29 93.734 72.9013 93.58 73.6107 93.58ZM82.3576 101.07C81.7323 101.07 81.1863 100.953 80.7196 100.72C80.2529 100.487 79.8889 100.137 79.6276 99.67C79.3756 99.2033 79.2496 98.62 79.2496 97.92V93.65H80.2436V97.808C80.2436 98.592 80.4349 99.1847 80.8176 99.586C81.2096 99.978 81.7556 100.174 82.4556 100.174C82.9689 100.174 83.4123 100.071 83.7856 99.866C84.1683 99.6513 84.4576 99.3433 84.6536 98.942C84.8589 98.5407 84.9616 98.06 84.9616 97.5V93.65H85.9556V101H85.0036V98.984L85.1576 99.348C84.9243 99.8893 84.5603 100.314 84.0656 100.622C83.5803 100.921 83.0109 101.07 82.3576 101.07ZM91.8478 101.07C91.0825 101.07 90.4105 100.911 89.8318 100.594C89.2532 100.267 88.8005 99.824 88.4738 99.264C88.1472 98.6947 87.9838 98.046 87.9838 97.318C87.9838 96.59 88.1378 95.946 88.4458 95.386C88.7632 94.826 89.1925 94.3873 89.7338 94.07C90.2845 93.7433 90.9005 93.58 91.5818 93.58C92.2725 93.58 92.8838 93.7387 93.4158 94.056C93.9572 94.364 94.3818 94.8027 94.6898 95.372C94.9978 95.932 95.1518 96.5807 95.1518 97.318C95.1518 97.3647 95.1472 97.416 95.1378 97.472C95.1378 97.5187 95.1378 97.57 95.1378 97.626H88.7398V96.884H94.6058L94.2138 97.178C94.2138 96.646 94.0972 96.1747 93.8638 95.764C93.6398 95.344 93.3318 95.0173 92.9398 94.784C92.5478 94.5507 92.0952 94.434 91.5818 94.434C91.0778 94.434 90.6252 94.5507 90.2238 94.784C89.8225 95.0173 89.5098 95.344 89.2858 95.764C89.0618 96.184 88.9498 96.6647 88.9498 97.206V97.36C88.9498 97.92 89.0712 98.4147 89.3138 98.844C89.5658 99.264 89.9112 99.5953 90.3498 99.838C90.7978 100.071 91.3065 100.188 91.8758 100.188C92.3238 100.188 92.7392 100.109 93.1218 99.95C93.5138 99.7913 93.8498 99.5487 94.1298 99.222L94.6898 99.866C94.3632 100.258 93.9525 100.557 93.4578 100.762C92.9725 100.967 92.4358 101.07 91.8478 101.07Z" fill="#848484"/>
<path d="M44.8466 127.218C42.4626 127.214 40.5994 126.548 39.2572 125.218C37.915 123.888 37.2455 121.992 37.2487 119.528L37.2612 110.12L41.1492 110.125L41.1369 119.389C41.1348 120.989 41.4613 122.141 42.1164 122.846C42.7714 123.551 43.691 123.904 44.875 123.906C46.059 123.907 46.9794 123.556 47.6363 122.853C48.2933 122.15 48.6228 120.999 48.6249 119.399L48.6372 110.135L52.4772 110.14L52.4647 119.548C52.4615 122.012 51.787 123.907 50.4412 125.233C49.0954 126.559 47.2306 127.221 44.8466 127.218ZM61.8166 127.24C60.4726 127.238 59.1848 127.061 57.9533 126.707C56.7218 126.337 55.7304 125.864 54.9792 125.287L56.3031 122.361C57.0224 122.874 57.8698 123.299 58.8454 123.636C59.837 123.957 60.8367 124.119 61.8447 124.12C62.6127 124.121 63.2288 124.05 63.693 123.907C64.1732 123.747 64.5255 123.532 64.7499 123.26C64.9742 122.988 65.0867 122.676 65.0871 122.324C65.0877 121.876 64.9122 121.524 64.5605 121.268C64.2089 120.995 63.7452 120.779 63.1694 120.618C62.5936 120.441 61.9538 120.28 61.25 120.135C60.5622 119.974 59.8665 119.781 59.1628 119.557C58.4751 119.332 57.8435 119.043 57.2679 118.69C56.6924 118.337 56.221 117.873 55.8538 117.296C55.5025 116.72 55.3275 115.983 55.3287 115.087C55.33 114.127 55.5871 113.256 56.1002 112.472C56.6292 111.673 57.4141 111.042 58.4547 110.58C59.5113 110.101 60.8316 109.863 62.4156 109.865C63.4716 109.866 64.5115 109.996 65.5351 110.253C66.5588 110.494 67.4623 110.864 68.2457 111.361L67.0417 114.311C66.2583 113.862 65.4748 113.533 64.691 113.324C63.9073 113.099 63.1395 112.986 62.3875 112.985C61.6355 112.984 61.0194 113.071 60.5391 113.246C60.0589 113.422 59.7146 113.653 59.5062 113.941C59.2979 114.213 59.1934 114.533 59.193 114.901C59.1924 115.333 59.3679 115.685 59.7196 115.957C60.0712 116.214 60.5349 116.422 61.1107 116.583C61.6865 116.744 62.3183 116.905 63.0061 117.066C63.7099 117.227 64.4056 117.411 65.0934 117.62C65.7971 117.829 66.4367 118.11 67.0122 118.463C67.5878 118.816 68.0512 119.28 68.4024 119.857C68.7696 120.433 68.9527 121.162 68.9515 122.042C68.9503 122.986 68.6851 123.849 68.1561 124.632C67.627 125.416 66.8342 126.047 65.7776 126.525C64.7369 127.004 63.4166 127.242 61.8166 127.24ZM71.6017 126.965L71.6239 110.165L79.2559 110.175C81.0799 110.178 82.6875 110.532 84.0785 111.238C85.4696 111.927 86.5563 112.897 87.3387 114.146C88.121 115.395 88.5111 116.875 88.5088 118.587C88.5065 120.283 88.1126 121.763 87.3269 123.026C86.5413 124.273 85.452 125.247 84.059 125.95C82.6661 126.636 81.0577 126.978 79.2337 126.975L71.6017 126.965ZM75.4939 123.778L79.0459 123.783C80.1659 123.784 81.1342 123.578 81.9507 123.163C82.7833 122.732 83.4241 122.125 83.8731 121.341C84.3382 120.558 84.5714 119.638 84.5728 118.582C84.5742 117.51 84.3434 116.59 83.8804 115.821C83.4335 115.037 82.7943 114.436 81.9628 114.019C81.1474 113.586 80.1797 113.368 79.0597 113.367L75.5077 113.362L75.4939 123.778ZM92.5929 118.569C91.9529 118.568 91.4012 118.351 90.9378 117.919C90.4904 117.47 90.2671 116.902 90.2681 116.214C90.269 115.526 90.4937 114.974 90.9422 114.559C91.4068 114.127 91.9591 113.912 92.5991 113.913C93.2551 113.914 93.8068 114.13 94.2542 114.563C94.7017 114.98 94.925 115.532 94.9241 116.22C94.9231 116.908 94.6984 117.476 94.2498 117.923C93.8012 118.354 93.2489 118.57 92.5929 118.569ZM92.5815 127.185C91.9415 127.184 91.3898 126.967 90.9264 126.535C90.479 126.086 90.2557 125.518 90.2566 124.83C90.2576 124.142 90.4823 123.59 90.9308 123.175C91.3954 122.743 91.9477 122.528 92.5877 122.529C93.2437 122.53 93.7954 122.746 94.2428 123.179C94.6903 123.596 94.9135 124.148 94.9126 124.836C94.9117 125.524 94.687 126.092 94.2384 126.539C93.7898 126.97 93.2375 127.186 92.5815 127.185ZM112.639 112.523L109.445 114.271L109.446 113.647L112.635 115.379L111.457 117.346L108.483 115.566L108.819 115.35L108.863 118.686L106.607 118.683L106.635 115.347L106.971 115.564L103.993 117.336L102.843 115.366L106.038 113.643L106.037 114.267L102.847 112.51L104.002 110.544L106.975 112.348L106.639 112.539L106.619 109.203L108.875 109.206L108.823 112.542L108.487 112.35L111.466 110.554L112.639 112.523ZM123.514 112.538L120.32 114.286L120.321 113.662L123.51 115.394L122.332 117.36L119.358 115.58L119.694 115.365L119.738 118.701L117.482 118.698L117.51 115.362L117.846 115.578L114.868 117.35L113.718 115.381L116.913 113.657L116.912 114.281L113.722 112.525L114.877 110.558L117.85 112.362L117.514 112.554L117.494 109.218L119.75 109.221L119.698 112.557L119.362 112.364L122.341 110.568L123.514 112.538ZM134.389 112.552L131.195 114.3L131.196 113.676L134.385 115.408L133.207 117.375L130.233 115.595L130.569 115.379L130.613 118.715L128.357 118.712L128.385 115.376L128.721 115.593L125.743 117.365L124.593 115.395L127.788 113.671L127.787 114.295L124.597 112.539L125.752 110.573L128.725 112.377L128.389 112.568L128.369 109.232L130.625 109.235L130.573 112.571L130.237 112.379L133.216 110.583L134.389 112.552ZM145.264 112.567L142.07 114.314L142.071 113.69L145.26 115.423L144.082 117.389L141.108 115.609L141.444 115.394L141.488 118.73L139.232 118.727L139.26 115.391L139.596 115.607L136.618 117.379L135.468 115.41L138.663 113.686L138.662 114.31L135.472 112.554L136.627 110.587L139.6 112.391L139.264 112.583L139.244 109.247L141.5 109.25L141.448 112.586L141.112 112.393L144.091 110.597L145.264 112.567ZM156.139 112.581L152.945 114.329L152.946 113.705L156.135 115.437L154.957 117.403L151.983 115.624L152.319 115.408L152.363 118.744L150.107 118.741L150.135 115.405L150.471 115.622L147.493 117.394L146.343 115.424L149.538 113.7L149.537 114.324L146.347 112.568L147.502 110.602L150.475 112.406L150.139 112.597L150.119 109.261L152.375 109.264L152.323 112.6L151.987 112.408L154.966 110.611L156.139 112.581ZM163.301 129.967L163.331 107.407L165.731 107.41L165.701 129.97L163.301 129.967ZM164.168 127.376C162.824 127.374 161.536 127.196 160.305 126.843C159.073 126.473 158.082 126 157.331 125.423L158.655 122.496C159.374 123.009 160.221 123.434 161.197 123.772C162.188 124.093 163.188 124.254 164.196 124.256C164.964 124.257 165.58 124.186 166.045 124.042C166.525 123.883 166.877 123.667 167.101 123.396C167.326 123.124 167.438 122.812 167.439 122.46C167.439 122.012 167.264 121.66 166.912 121.403C166.56 121.131 166.097 120.914 165.521 120.753C164.945 120.577 164.305 120.416 163.601 120.271C162.914 120.11 162.218 119.917 161.514 119.692C160.827 119.467 160.195 119.178 159.619 118.826C159.044 118.473 158.572 118.008 158.205 117.432C157.854 116.855 157.679 116.119 157.68 115.223C157.681 114.263 157.939 113.391 158.452 112.608C158.981 111.809 159.766 111.178 160.806 110.715C161.863 110.237 163.183 109.998 164.767 110C165.823 110.002 166.863 110.131 167.887 110.389C168.91 110.63 169.814 110.999 170.597 111.496L169.393 114.447C168.61 113.998 167.826 113.668 167.043 113.459C166.259 113.234 165.491 113.121 164.739 113.12C163.987 113.119 163.371 113.207 162.891 113.382C162.41 113.557 162.066 113.789 161.858 114.077C161.649 114.348 161.545 114.668 161.544 115.036C161.544 115.468 161.719 115.82 162.071 116.093C162.423 116.349 162.886 116.558 163.462 116.719C164.038 116.879 164.67 117.04 165.358 117.201C166.061 117.362 166.757 117.547 167.445 117.756C168.149 117.965 168.788 118.246 169.364 118.599C169.939 118.951 170.403 119.416 170.754 119.992C171.121 120.569 171.304 121.297 171.303 122.177C171.302 123.121 171.037 123.985 170.508 124.768C169.979 125.551 169.186 126.182 168.129 126.661C167.088 127.14 165.768 127.378 164.168 127.376Z" fill="black"/>
<path d="M325.62 110V101.04L326.6 102.02H323.66V100.2H327.888V110H325.62ZM333.65 110.168C332.829 110.168 332.11 110.047 331.494 109.804C330.878 109.552 330.397 109.202 330.052 108.754C329.707 108.297 329.534 107.765 329.534 107.158C329.534 106.551 329.702 106.038 330.038 105.618C330.383 105.189 330.864 104.867 331.48 104.652C332.096 104.428 332.819 104.316 333.65 104.316C334.49 104.316 335.218 104.428 335.834 104.652C336.459 104.867 336.94 105.189 337.276 105.618C337.621 106.038 337.794 106.551 337.794 107.158C337.794 107.765 337.621 108.297 337.276 108.754C336.931 109.202 336.445 109.552 335.82 109.804C335.204 110.047 334.481 110.168 333.65 110.168ZM333.65 108.502C334.219 108.502 334.667 108.376 334.994 108.124C335.33 107.872 335.498 107.527 335.498 107.088C335.498 106.649 335.33 106.309 334.994 106.066C334.667 105.814 334.219 105.688 333.65 105.688C333.09 105.688 332.647 105.814 332.32 106.066C331.993 106.309 331.83 106.649 331.83 107.088C331.83 107.527 331.993 107.872 332.32 108.124C332.647 108.376 333.09 108.502 333.65 108.502ZM333.65 105.464C332.894 105.464 332.231 105.361 331.662 105.156C331.102 104.951 330.663 104.652 330.346 104.26C330.038 103.859 329.884 103.383 329.884 102.832C329.884 102.253 330.043 101.759 330.36 101.348C330.677 100.928 331.121 100.606 331.69 100.382C332.259 100.149 332.913 100.032 333.65 100.032C334.406 100.032 335.064 100.149 335.624 100.382C336.193 100.606 336.637 100.928 336.954 101.348C337.281 101.759 337.444 102.253 337.444 102.832C337.444 103.383 337.285 103.859 336.968 104.26C336.66 104.652 336.221 104.951 335.652 105.156C335.083 105.361 334.415 105.464 333.65 105.464ZM333.65 104.134C334.126 104.134 334.499 104.027 334.77 103.812C335.05 103.597 335.19 103.303 335.19 102.93C335.19 102.538 335.045 102.235 334.756 102.02C334.476 101.805 334.107 101.698 333.65 101.698C333.202 101.698 332.838 101.805 332.558 102.02C332.278 102.235 332.138 102.538 332.138 102.93C332.138 103.303 332.273 103.597 332.544 103.812C332.815 104.027 333.183 104.134 333.65 104.134ZM338.72 107.942V106.416L343.34 100.2H345.72L341.198 106.416L340.092 106.094H347.806V107.942H338.72ZM343.998 110V107.942L344.068 106.094V104.26H346.21V110H343.998ZM350.046 110.112C349.673 110.112 349.351 109.986 349.08 109.734C348.819 109.473 348.688 109.141 348.688 108.74C348.688 108.339 348.819 108.017 349.08 107.774C349.351 107.522 349.673 107.396 350.046 107.396C350.429 107.396 350.751 107.522 351.012 107.774C351.273 108.017 351.404 108.339 351.404 108.74C351.404 109.141 351.273 109.473 351.012 109.734C350.751 109.986 350.429 110.112 350.046 110.112ZM355.737 110.168C355.055 110.168 354.379 110.079 353.707 109.902C353.035 109.715 352.465 109.454 351.999 109.118L352.881 107.382C353.254 107.653 353.688 107.867 354.183 108.026C354.677 108.185 355.177 108.264 355.681 108.264C356.25 108.264 356.698 108.152 357.025 107.928C357.351 107.704 357.515 107.396 357.515 107.004C357.515 106.631 357.37 106.337 357.081 106.122C356.791 105.907 356.325 105.8 355.681 105.8H354.645V104.302L357.375 101.208L357.627 102.02H352.489V100.2H359.349V101.67L356.633 104.764L355.485 104.106H356.143C357.347 104.106 358.257 104.377 358.873 104.918C359.489 105.459 359.797 106.155 359.797 107.004C359.797 107.555 359.652 108.073 359.363 108.558C359.073 109.034 358.63 109.421 358.033 109.72C357.435 110.019 356.67 110.168 355.737 110.168ZM362.121 110L368.813 100.2H370.479L363.787 110H362.121ZM362.975 105.492C362.499 105.492 362.079 105.385 361.715 105.17C361.351 104.946 361.062 104.633 360.847 104.232C360.642 103.821 360.539 103.341 360.539 102.79C360.539 102.239 360.642 101.763 360.847 101.362C361.062 100.961 361.351 100.648 361.715 100.424C362.079 100.2 362.499 100.088 362.975 100.088C363.451 100.088 363.871 100.2 364.235 100.424C364.599 100.648 364.884 100.961 365.089 101.362C365.294 101.763 365.397 102.239 365.397 102.79C365.397 103.341 365.294 103.821 365.089 104.232C364.884 104.633 364.599 104.946 364.235 105.17C363.871 105.385 363.451 105.492 362.975 105.492ZM362.975 104.344C363.283 104.344 363.53 104.218 363.717 103.966C363.904 103.705 363.997 103.313 363.997 102.79C363.997 102.267 363.904 101.88 363.717 101.628C363.53 101.367 363.283 101.236 362.975 101.236C362.676 101.236 362.429 101.367 362.233 101.628C362.046 101.88 361.953 102.267 361.953 102.79C361.953 103.303 362.046 103.691 362.233 103.952C362.429 104.213 362.676 104.344 362.975 104.344ZM369.625 110.112C369.158 110.112 368.738 110.005 368.365 109.79C368.001 109.566 367.716 109.253 367.511 108.852C367.306 108.441 367.203 107.961 367.203 107.41C367.203 106.859 367.306 106.383 367.511 105.982C367.716 105.581 368.001 105.268 368.365 105.044C368.738 104.82 369.158 104.708 369.625 104.708C370.11 104.708 370.535 104.82 370.899 105.044C371.263 105.268 371.548 105.581 371.753 105.982C371.958 106.383 372.061 106.859 372.061 107.41C372.061 107.961 371.958 108.441 371.753 108.852C371.548 109.253 371.263 109.566 370.899 109.79C370.535 110.005 370.11 110.112 369.625 110.112ZM369.625 108.964C369.933 108.964 370.18 108.838 370.367 108.586C370.554 108.325 370.647 107.933 370.647 107.41C370.647 106.897 370.554 106.509 370.367 106.248C370.18 105.987 369.933 105.856 369.625 105.856C369.326 105.856 369.079 105.987 368.883 106.248C368.696 106.5 368.603 106.887 368.603 107.41C368.603 107.933 368.696 108.325 368.883 108.586C369.079 108.838 369.326 108.964 369.625 108.964Z" fill="#008C30"/>
<path d="M317.302 108.889L317.302 101M317.302 101L315 103.958M317.302 101L319.604 103.958" stroke="#008C30" stroke-width="2" stroke-linecap="round" stroke-linejoin="round"/>
<defs>
<filter id="filter0_bd_162_2" x="0" y="0" width="409" height="171" filterUnits="userSpaceOnUse" color-interpolation-filters="sRGB">
<feFlood flood-opacity="0" result="BackgroundImageFix"/>
<feGaussianBlur in="BackgroundImageFix" stdDeviation="2.5"/>
<feComposite in2="SourceAlpha" operator="in" result="effect1_backgroundBlur_162_2"/>
<feColorMatrix in="SourceAlpha" type="matrix" values="0 0 0 0 0 0 0 0 0 0 0 0 0 0 0 0 0 0 127 0" result="hardAlpha"/>
<feOffset dy="4"/>
<feGaussianBlur stdDeviation="7.5"/>
<feComposite in2="hardAlpha" operator="out"/>
<feColorMatrix type="matrix" values="0 0 0 0 0 0 0 0 0 0 0 0 0 0 0 0 0 0 0.25 0"/>
<feBlend mode="normal" in2="effect1_backgroundBlur_162_2" result="effect2_dropShadow_162_2"/>
<feBlend mode="normal" in="SourceGraphic" in2="effect2_dropShadow_162_2" result="shape"/>
</filter>
<linearGradient id="paint0_linear_162_2" x1="66" y1="6.00001" x2="393" y2="166.5" gradientUnits="userSpaceOnUse">
<stop stop-color="white"/>
<stop offset="1" stop-color="white" stop-opacity="0"/>
</linearGradient>
</defs>
</svg>
