<svg width="248" height="186" viewBox="0 0 248 186" fill="none" xmlns="http://www.w3.org/2000/svg">
<rect x="0.5" y="0.5" width="247" height="185" rx="49.5" fill="#121214"/>
<rect x="0.5" y="0.5" width="247" height="185" rx="49.5" stroke="#252528"/>
<g clip-path="url(#clip0_41_85)">
<path d="M44 52.1364C44.1978 52.1364 44.3911 52.0724 44.5556 51.9525C44.72 51.8326 44.8482 51.6623 44.9239 51.4629C44.9996 51.2636 45.0194 51.0442 44.9808 50.8326C44.9422 50.621 44.847 50.4266 44.7071 50.2741C44.5673 50.1215 44.3891 50.0176 44.1951 49.9755C44.0011 49.9334 43.8 49.955 43.6173 50.0376C43.4346 50.1202 43.2784 50.26 43.1685 50.4394C43.0586 50.6188 43 50.8297 43 51.0455C43 51.3348 43.1054 51.6123 43.2929 51.8168C43.4804 52.0214 43.7348 52.1364 44 52.1364ZM49 52.1364C49.1978 52.1364 49.3911 52.0724 49.5556 51.9525C49.72 51.8326 49.8482 51.6623 49.9239 51.4629C49.9996 51.2636 50.0194 51.0442 49.9808 50.8326C49.9422 50.621 49.847 50.4266 49.7071 50.2741C49.5673 50.1215 49.3891 50.0176 49.1951 49.9755C49.0011 49.9334 48.8 49.955 48.6173 50.0376C48.4346 50.1202 48.2784 50.26 48.1685 50.4394C48.0586 50.6188 48 50.8297 48 51.0455C48 51.3348 48.1054 51.6123 48.2929 51.8168C48.4804 52.0214 48.7348 52.1364 49 52.1364ZM49 47.7727C49.1978 47.7727 49.3911 47.7087 49.5556 47.5889C49.72 47.469 49.8482 47.2986 49.9239 47.0993C49.9996 46.9 50.0194 46.6806 49.9808 46.469C49.9422 46.2574 49.847 46.063 49.7071 45.9104C49.5673 45.7579 49.3891 45.654 49.1951 45.6119C49.0011 45.5698 48.8 45.5914 48.6173 45.674C48.4346 45.7565 48.2784 45.8963 48.1685 46.0757C48.0586 46.2551 48 46.4661 48 46.6818C48 46.9711 48.1054 47.2486 48.2929 47.4532C48.4804 47.6578 48.7348 47.7727 49 47.7727ZM44 47.7727C44.1978 47.7727 44.3911 47.7087 44.5556 47.5889C44.72 47.469 44.8482 47.2986 44.9239 47.0993C44.9996 46.9 45.0194 46.6806 44.9808 46.469C44.9422 46.2574 44.847 46.063 44.7071 45.9104C44.5673 45.7579 44.3891 45.654 44.1951 45.6119C44.0011 45.5698 43.8 45.5914 43.6173 45.674C43.4346 45.7565 43.2784 45.8963 43.1685 46.0757C43.0586 46.2551 43 46.4661 43 46.6818C43 46.9711 43.1054 47.2486 43.2929 47.4532C43.4804 47.6578 43.7348 47.7727 44 47.7727ZM51 34.6818H50V33.5909C50 33.3016 49.8946 33.0241 49.7071 32.8195C49.5196 32.6149 49.2652 32.5 49 32.5C48.7348 32.5 48.4804 32.6149 48.2929 32.8195C48.1054 33.0241 48 33.3016 48 33.5909V34.6818H40V33.5909C40 33.3016 39.8946 33.0241 39.7071 32.8195C39.5196 32.6149 39.2652 32.5 39 32.5C38.7348 32.5 38.4804 32.6149 38.2929 32.8195C38.1054 33.0241 38 33.3016 38 33.5909V34.6818H37C36.2044 34.6818 35.4413 35.0266 34.8787 35.6404C34.3161 36.2541 34 37.0866 34 37.9545V53.2273C34 54.0953 34.3161 54.9277 34.8787 55.5414C35.4413 56.1552 36.2044 56.5 37 56.5H51C51.7956 56.5 52.5587 56.1552 53.1213 55.5414C53.6839 54.9277 54 54.0953 54 53.2273V37.9545C54 37.0866 53.6839 36.2541 53.1213 35.6404C52.5587 35.0266 51.7956 34.6818 51 34.6818ZM52 53.2273C52 53.5166 51.8946 53.7941 51.7071 53.9987C51.5196 54.2032 51.2652 54.3182 51 54.3182H37C36.7348 54.3182 36.4804 54.2032 36.2929 53.9987C36.1054 53.7941 36 53.5166 36 53.2273V43.4091H52V53.2273ZM52 41.2273H36V37.9545C36 37.6652 36.1054 37.3877 36.2929 37.1832C36.4804 36.9786 36.7348 36.8636 37 36.8636H38V37.9545C38 38.2439 38.1054 38.5213 38.2929 38.7259C38.4804 38.9305 38.7348 39.0455 39 39.0455C39.2652 39.0455 39.5196 38.9305 39.7071 38.7259C39.8946 38.5213 40 38.2439 40 37.9545V36.8636H48V37.9545C48 38.2439 48.1054 38.5213 48.2929 38.7259C48.4804 38.9305 48.7348 39.0455 49 39.0455C49.2652 39.0455 49.5196 38.9305 49.7071 38.7259C49.8946 38.5213 50 38.2439 50 37.9545V36.8636H51C51.2652 36.8636 51.5196 36.9786 51.7071 37.1832C51.8946 37.3877 52 37.6652 52 37.9545V41.2273ZM39 47.7727C39.1978 47.7727 39.3911 47.7087 39.5556 47.5889C39.72 47.469 39.8482 47.2986 39.9239 47.0993C39.9996 46.9 40.0194 46.6806 39.9808 46.469C39.9422 46.2574 39.847 46.063 39.7071 45.9104C39.5673 45.7579 39.3891 45.654 39.1951 45.6119C39.0011 45.5698 38.8 45.5914 38.6173 45.674C38.4346 45.7565 38.2784 45.8963 38.1685 46.0757C38.0586 46.2551 38 46.4661 38 46.6818C38 46.9711 38.1054 47.2486 38.2929 47.4532C38.4804 47.6578 38.7348 47.7727 39 47.7727ZM39 52.1364C39.1978 52.1364 39.3911 52.0724 39.5556 51.9525C39.72 51.8326 39.8482 51.6623 39.9239 51.4629C39.9996 51.2636 40.0194 51.0442 39.9808 50.8326C39.9422 50.621 39.847 50.4266 39.7071 50.2741C39.5673 50.1215 39.3891 50.0176 39.1951 49.9755C39.0011 49.9334 38.8 49.955 38.6173 50.0376C38.4346 50.1202 38.2784 50.26 38.1685 50.4394C38.0586 50.6188 38 50.8297 38 51.0455C38 51.3348 38.1054 51.6123 38.2929 51.8168C38.4804 52.0214 38.7348 52.1364 39 52.1364Z" fill="#FF8125"/>
</g>
<path d="M68.4544 49.098C67.8104 49.098 67.2318 48.986 66.7184 48.762C66.2144 48.5287 65.8178 48.2113 65.5284 47.81C65.2391 47.3993 65.0898 46.928 65.0804 46.396H66.4384C66.4851 46.8533 66.6718 47.2407 66.9984 47.558C67.3344 47.866 67.8198 48.02 68.4544 48.02C69.0611 48.02 69.5371 47.8707 69.8824 47.572C70.2371 47.264 70.4144 46.872 70.4144 46.396C70.4144 46.0227 70.3118 45.7193 70.1064 45.486C69.9011 45.2527 69.6444 45.0753 69.3364 44.954C69.0284 44.8327 68.6131 44.702 68.0904 44.562C67.4464 44.394 66.9284 44.226 66.5364 44.058C66.1538 43.89 65.8224 43.6287 65.5424 43.274C65.2718 42.91 65.1364 42.4247 65.1364 41.818C65.1364 41.286 65.2718 40.8147 65.5424 40.404C65.8131 39.9933 66.1911 39.676 66.6764 39.452C67.1711 39.228 67.7358 39.116 68.3704 39.116C69.2851 39.116 70.0318 39.3447 70.6104 39.802C71.1984 40.2593 71.5298 40.866 71.6044 41.622H70.2044C70.1578 41.2487 69.9618 40.922 69.6164 40.642C69.2711 40.3527 68.8138 40.208 68.2444 40.208C67.7124 40.208 67.2784 40.348 66.9424 40.628C66.6064 40.8987 66.4384 41.2813 66.4384 41.776C66.4384 42.1307 66.5364 42.42 66.7324 42.644C66.9378 42.868 67.1851 43.0407 67.4744 43.162C67.7731 43.274 68.1884 43.4047 68.7204 43.554C69.3644 43.7313 69.8824 43.9087 70.2744 44.086C70.6664 44.254 71.0024 44.52 71.2824 44.884C71.5624 45.2387 71.7024 45.724 71.7024 46.34C71.7024 46.816 71.5764 47.264 71.3244 47.684C71.0724 48.104 70.6991 48.4447 70.2044 48.706C69.7098 48.9673 69.1264 49.098 68.4544 49.098ZM81.7812 41.328V49H80.5072V47.866C80.2646 48.258 79.9239 48.566 79.4852 48.79C79.0559 49.0047 78.5799 49.112 78.0572 49.112C77.4599 49.112 76.9232 48.9907 76.4472 48.748C75.9712 48.496 75.5932 48.1227 75.3132 47.628C75.0426 47.1333 74.9072 46.5313 74.9072 45.822V41.328H76.1672V45.654C76.1672 46.41 76.3586 46.9933 76.7412 47.404C77.1239 47.8053 77.6466 48.006 78.3092 48.006C78.9906 48.006 79.5272 47.796 79.9192 47.376C80.3112 46.956 80.5072 46.3447 80.5072 45.542V41.328H81.7812ZM86.6063 42.756C86.8676 42.2987 87.2503 41.9253 87.7543 41.636C88.2583 41.3467 88.8323 41.202 89.4763 41.202C90.167 41.202 90.7876 41.3653 91.3383 41.692C91.889 42.0187 92.323 42.4807 92.6403 43.078C92.9576 43.666 93.1163 44.352 93.1163 45.136C93.1163 45.9107 92.9576 46.6013 92.6403 47.208C92.323 47.8147 91.8843 48.286 91.3243 48.622C90.7736 48.958 90.1576 49.126 89.4763 49.126C88.8136 49.126 88.2303 48.9813 87.7263 48.692C87.2316 48.4027 86.8583 48.034 86.6063 47.586V49H85.3323V38.64H86.6063V42.756ZM91.8143 45.136C91.8143 44.5573 91.6976 44.0533 91.4643 43.624C91.231 43.1947 90.9136 42.868 90.5123 42.644C90.1203 42.42 89.6863 42.308 89.2103 42.308C88.7436 42.308 88.3096 42.4247 87.9083 42.658C87.5163 42.882 87.199 43.2133 86.9563 43.652C86.723 44.0813 86.6063 44.5807 86.6063 45.15C86.6063 45.7287 86.723 46.2373 86.9563 46.676C87.199 47.1053 87.5163 47.4367 87.9083 47.67C88.3096 47.894 88.7436 48.006 89.2103 48.006C89.6863 48.006 90.1203 47.894 90.5123 47.67C90.9136 47.4367 91.231 47.1053 91.4643 46.676C91.6976 46.2373 91.8143 45.724 91.8143 45.136ZM98.9092 49.126C98.3212 49.126 97.7939 49.028 97.3272 48.832C96.8606 48.6267 96.4919 48.3467 96.2212 47.992C95.9506 47.628 95.8012 47.2127 95.7732 46.746H97.0892C97.1266 47.1287 97.3039 47.4413 97.6212 47.684C97.9479 47.9267 98.3726 48.048 98.8952 48.048C99.3806 48.048 99.7632 47.9407 100.043 47.726C100.323 47.5113 100.463 47.2407 100.463 46.914C100.463 46.578 100.314 46.3307 100.015 46.172C99.7166 46.004 99.2546 45.8407 98.6292 45.682C98.0599 45.5327 97.5932 45.3833 97.2292 45.234C96.8746 45.0753 96.5666 44.8467 96.3052 44.548C96.0532 44.24 95.9272 43.8387 95.9272 43.344C95.9272 42.952 96.0439 42.5927 96.2772 42.266C96.5106 41.9393 96.8419 41.6827 97.2712 41.496C97.7006 41.3 98.1906 41.202 98.7412 41.202C99.5906 41.202 100.277 41.4167 100.799 41.846C101.322 42.2753 101.602 42.8633 101.639 43.61H100.365C100.337 43.2087 100.174 42.8867 99.8752 42.644C99.5859 42.4013 99.1939 42.28 98.6992 42.28C98.2419 42.28 97.8779 42.378 97.6072 42.574C97.3366 42.77 97.2012 43.0267 97.2012 43.344C97.2012 43.596 97.2806 43.806 97.4392 43.974C97.6072 44.1327 97.8126 44.2633 98.0552 44.366C98.3072 44.4593 98.6526 44.5667 99.0912 44.688C99.6419 44.8373 100.09 44.9867 100.435 45.136C100.781 45.276 101.075 45.4907 101.317 45.78C101.569 46.0693 101.7 46.4473 101.709 46.914C101.709 47.334 101.593 47.712 101.359 48.048C101.126 48.384 100.795 48.65 100.365 48.846C99.9452 49.0327 99.4599 49.126 98.9092 49.126ZM104.432 45.15C104.432 44.3567 104.59 43.666 104.908 43.078C105.225 42.4807 105.664 42.0187 106.224 41.692C106.793 41.3653 107.442 41.202 108.17 41.202C109.112 41.202 109.887 41.4307 110.494 41.888C111.11 42.3453 111.516 42.98 111.712 43.792H110.34C110.209 43.3253 109.952 42.9567 109.57 42.686C109.196 42.4153 108.73 42.28 108.17 42.28C107.442 42.28 106.854 42.532 106.406 43.036C105.958 43.5307 105.734 44.2353 105.734 45.15C105.734 46.074 105.958 46.788 106.406 47.292C106.854 47.796 107.442 48.048 108.17 48.048C108.73 48.048 109.196 47.9173 109.57 47.656C109.943 47.3947 110.2 47.0213 110.34 46.536H111.712C111.506 47.32 111.096 47.95 110.48 48.426C109.864 48.8927 109.094 49.126 108.17 49.126C107.442 49.126 106.793 48.9627 106.224 48.636C105.664 48.3093 105.225 47.8473 104.908 47.25C104.59 46.6527 104.432 45.9527 104.432 45.15ZM116.086 42.574C116.31 42.1353 116.627 41.7947 117.038 41.552C117.458 41.3093 117.966 41.188 118.564 41.188V42.504H118.228C116.8 42.504 116.086 43.2787 116.086 44.828V49H114.812V41.328H116.086V42.574ZM122.092 40.082C121.85 40.082 121.644 39.998 121.476 39.83C121.308 39.662 121.224 39.4567 121.224 39.214C121.224 38.9713 121.308 38.766 121.476 38.598C121.644 38.43 121.85 38.346 122.092 38.346C122.326 38.346 122.522 38.43 122.68 38.598C122.848 38.766 122.932 38.9713 122.932 39.214C122.932 39.4567 122.848 39.662 122.68 39.83C122.522 39.998 122.326 40.082 122.092 40.082ZM122.708 41.328V49H121.434V41.328H122.708ZM127.554 42.742C127.806 42.3033 128.179 41.9393 128.674 41.65C129.178 41.3513 129.761 41.202 130.424 41.202C131.105 41.202 131.721 41.3653 132.272 41.692C132.832 42.0187 133.27 42.4807 133.588 43.078C133.905 43.666 134.064 44.352 134.064 45.136C134.064 45.9107 133.905 46.6013 133.588 47.208C133.27 47.8147 132.832 48.286 132.272 48.622C131.721 48.958 131.105 49.126 130.424 49.126C129.77 49.126 129.192 48.9813 128.688 48.692C128.193 48.3933 127.815 48.0247 127.554 47.586V52.64H126.28V41.328H127.554V42.742ZM132.762 45.136C132.762 44.5573 132.645 44.0533 132.412 43.624C132.178 43.1947 131.861 42.868 131.46 42.644C131.068 42.42 130.634 42.308 130.158 42.308C129.691 42.308 129.257 42.4247 128.856 42.658C128.464 42.882 128.146 43.2133 127.904 43.652C127.67 44.0813 127.554 44.5807 127.554 45.15C127.554 45.7287 127.67 46.2373 127.904 46.676C128.146 47.1053 128.464 47.4367 128.856 47.67C129.257 47.894 129.691 48.006 130.158 48.006C130.634 48.006 131.068 47.894 131.46 47.67C131.861 47.4367 132.178 47.1053 132.412 46.676C132.645 46.2373 132.762 45.724 132.762 45.136ZM138.695 42.378V46.9C138.695 47.2733 138.774 47.5393 138.933 47.698C139.091 47.8473 139.367 47.922 139.758 47.922H140.697V49H139.549C138.839 49 138.307 48.8367 137.953 48.51C137.598 48.1833 137.421 47.6467 137.421 46.9V42.378H136.427V41.328H137.421V39.396H138.695V41.328H140.697V42.378H138.695ZM144.298 40.082C144.055 40.082 143.85 39.998 143.682 39.83C143.514 39.662 143.43 39.4567 143.43 39.214C143.43 38.9713 143.514 38.766 143.682 38.598C143.85 38.43 144.055 38.346 144.298 38.346C144.531 38.346 144.727 38.43 144.886 38.598C145.054 38.766 145.138 38.9713 145.138 39.214C145.138 39.4567 145.054 39.662 144.886 39.83C144.727 39.998 144.531 40.082 144.298 40.082ZM144.914 41.328V49H143.64V41.328H144.914ZM151.831 49.126C151.113 49.126 150.459 48.9627 149.871 48.636C149.293 48.3093 148.835 47.8473 148.499 47.25C148.173 46.6433 148.009 45.9433 148.009 45.15C148.009 44.366 148.177 43.6753 148.513 43.078C148.859 42.4713 149.325 42.0093 149.913 41.692C150.501 41.3653 151.159 41.202 151.887 41.202C152.615 41.202 153.273 41.3653 153.861 41.692C154.449 42.0093 154.911 42.4667 155.247 43.064C155.593 43.6613 155.765 44.3567 155.765 45.15C155.765 45.9433 155.588 46.6433 155.233 47.25C154.888 47.8473 154.417 48.3093 153.819 48.636C153.222 48.9627 152.559 49.126 151.831 49.126ZM151.831 48.006C152.289 48.006 152.718 47.8987 153.119 47.684C153.521 47.4693 153.843 47.1473 154.085 46.718C154.337 46.2887 154.463 45.766 154.463 45.15C154.463 44.534 154.342 44.0113 154.099 43.582C153.857 43.1527 153.539 42.8353 153.147 42.63C152.755 42.4153 152.331 42.308 151.873 42.308C151.407 42.308 150.977 42.4153 150.585 42.63C150.203 42.8353 149.895 43.1527 149.661 43.582C149.428 44.0113 149.311 44.534 149.311 45.15C149.311 45.7753 149.423 46.3027 149.647 46.732C149.881 47.1613 150.189 47.4833 150.571 47.698C150.954 47.9033 151.374 48.006 151.831 48.006ZM162.578 41.188C163.512 41.188 164.268 41.4727 164.846 42.042C165.425 42.602 165.714 43.414 165.714 44.478V49H164.454V44.66C164.454 43.8947 164.263 43.3113 163.88 42.91C163.498 42.4993 162.975 42.294 162.312 42.294C161.64 42.294 161.104 42.504 160.702 42.924C160.31 43.344 160.114 43.9553 160.114 44.758V49H158.84V41.328H160.114V42.42C160.366 42.028 160.707 41.7247 161.136 41.51C161.575 41.2953 162.056 41.188 162.578 41.188Z" fill="#FF8125"/>
<path d="M38.848 75.848V84.088C38.848 85.0053 38.5653 85.7413 38 86.296C37.4347 86.84 36.688 87.112 35.76 87.112C34.8213 87.112 34.0693 86.8347 33.504 86.28C32.9387 85.7147 32.656 84.9467 32.656 83.976H34.112C34.1227 84.52 34.2613 84.9627 34.528 85.304C34.8053 85.6453 35.216 85.816 35.76 85.816C36.304 85.816 36.7093 85.656 36.976 85.336C37.2427 85.0053 37.376 84.5893 37.376 84.088V75.848H38.848ZM45.5404 87.144C44.719 87.144 43.9724 86.9573 43.3004 86.584C42.639 86.2107 42.1164 85.6827 41.7324 85C41.359 84.3067 41.1724 83.5067 41.1724 82.6C41.1724 81.704 41.3644 80.9147 41.7484 80.232C42.143 79.5387 42.6764 79.0107 43.3484 78.648C44.0204 78.2747 44.7724 78.088 45.6044 78.088C46.4364 78.088 47.1884 78.2747 47.8604 78.648C48.5324 79.0107 49.0604 79.5333 49.4444 80.216C49.839 80.8987 50.0364 81.6933 50.0364 82.6C50.0364 83.5067 49.8337 84.3067 49.4284 85C49.0337 85.6827 48.495 86.2107 47.8124 86.584C47.1297 86.9573 46.3724 87.144 45.5404 87.144ZM45.5404 85.864C46.063 85.864 46.5537 85.7413 47.0124 85.496C47.471 85.2507 47.839 84.8827 48.1164 84.392C48.4044 83.9013 48.5484 83.304 48.5484 82.6C48.5484 81.896 48.4097 81.2987 48.1324 80.808C47.855 80.3173 47.4924 79.9547 47.0444 79.72C46.5964 79.4747 46.111 79.352 45.5884 79.352C45.055 79.352 44.5644 79.4747 44.1164 79.72C43.679 79.9547 43.327 80.3173 43.0604 80.808C42.7937 81.2987 42.6604 81.896 42.6604 82.6C42.6604 83.3147 42.7884 83.9173 43.0444 84.408C43.311 84.8987 43.663 85.2667 44.1004 85.512C44.5377 85.7467 45.0177 85.864 45.5404 85.864ZM52.7028 76.808C52.4254 76.808 52.1908 76.712 51.9988 76.52C51.8068 76.328 51.7108 76.0933 51.7108 75.816C51.7108 75.5387 51.8068 75.304 51.9988 75.112C52.1908 74.92 52.4254 74.824 52.7028 74.824C52.9694 74.824 53.1934 74.92 53.3748 75.112C53.5668 75.304 53.6628 75.5387 53.6628 75.816C53.6628 76.0933 53.5668 76.328 53.3748 76.52C53.1934 76.712 52.9694 76.808 52.7028 76.808ZM53.4068 78.232V87H51.9508V78.232H53.4068ZM60.1603 78.072C61.2269 78.072 62.0909 78.3973 62.7523 79.048C63.4136 79.688 63.7443 80.616 63.7443 81.832V87H62.3043V82.04C62.3043 81.1653 62.0856 80.4987 61.6483 80.04C61.2109 79.5707 60.6136 79.336 59.8563 79.336C59.0883 79.336 58.4749 79.576 58.0163 80.056C57.5683 80.536 57.3443 81.2347 57.3443 82.152V87H55.8883V78.232H57.3443V79.48C57.6323 79.032 58.0216 78.6853 58.5123 78.44C59.0136 78.1947 59.5629 78.072 60.1603 78.072ZM69.8443 82.584C69.8443 81.688 70.0256 80.904 70.3883 80.232C70.7509 79.5493 71.2469 79.0213 71.8763 78.648C72.5163 78.2747 73.2256 78.088 74.0043 78.088C74.7723 78.088 75.4389 78.2533 76.0043 78.584C76.5696 78.9147 76.9909 79.3307 77.2683 79.832V78.232H78.7403V87H77.2683V85.368C76.9803 85.88 76.5483 86.3067 75.9723 86.648C75.4069 86.9787 74.7456 87.144 73.9883 87.144C73.2096 87.144 72.5056 86.952 71.8763 86.568C71.2469 86.184 70.7509 85.6453 70.3883 84.952C70.0256 84.2587 69.8443 83.4693 69.8443 82.584ZM77.2683 82.6C77.2683 81.9387 77.1349 81.3627 76.8683 80.872C76.6016 80.3813 76.2389 80.008 75.7803 79.752C75.3323 79.4853 74.8363 79.352 74.2923 79.352C73.7483 79.352 73.2523 79.48 72.8043 79.736C72.3563 79.992 71.9989 80.3653 71.7323 80.856C71.4656 81.3467 71.3323 81.9227 71.3323 82.584C71.3323 83.256 71.4656 83.8427 71.7323 84.344C71.9989 84.8347 72.3563 85.2133 72.8043 85.48C73.2523 85.736 73.7483 85.864 74.2923 85.864C74.8363 85.864 75.3323 85.736 75.7803 85.48C76.2389 85.2133 76.6016 84.8347 76.8683 84.344C77.1349 83.8427 77.2683 83.2613 77.2683 82.6ZM86.9224 79.848C87.2104 79.3467 87.637 78.9307 88.2024 78.6C88.7784 78.2587 89.445 78.088 90.2024 78.088C90.981 78.088 91.685 78.2747 92.3144 78.648C92.9544 79.0213 93.4557 79.5493 93.8184 80.232C94.181 80.904 94.3624 81.688 94.3624 82.584C94.3624 83.4693 94.181 84.2587 93.8184 84.952C93.4557 85.6453 92.9544 86.184 92.3144 86.568C91.685 86.952 90.981 87.144 90.2024 87.144C89.4557 87.144 88.7944 86.9787 88.2184 86.648C87.653 86.3067 87.221 85.8853 86.9224 85.384V91.16H85.4664V78.232H86.9224V79.848ZM92.8744 82.584C92.8744 81.9227 92.741 81.3467 92.4744 80.856C92.2077 80.3653 91.845 79.992 91.3864 79.736C90.9384 79.48 90.4424 79.352 89.8984 79.352C89.365 79.352 88.869 79.4853 88.4104 79.752C87.9624 80.008 87.5997 80.3867 87.3224 80.888C87.0557 81.3787 86.9224 81.9493 86.9224 82.6C86.9224 83.2613 87.0557 83.8427 87.3224 84.344C87.5997 84.8347 87.9624 85.2133 88.4104 85.48C88.869 85.736 89.365 85.864 89.8984 85.864C90.4424 85.864 90.9384 85.736 91.3864 85.48C91.845 85.2133 92.2077 84.8347 92.4744 84.344C92.741 83.8427 92.8744 83.256 92.8744 82.584ZM97.7349 75.16V87H96.2789V75.16H97.7349ZM99.6724 82.584C99.6724 81.688 99.8537 80.904 100.216 80.232C100.579 79.5493 101.075 79.0213 101.704 78.648C102.344 78.2747 103.054 78.088 103.832 78.088C104.6 78.088 105.267 78.2533 105.832 78.584C106.398 78.9147 106.819 79.3307 107.096 79.832V78.232H108.568V87H107.096V85.368C106.808 85.88 106.376 86.3067 105.8 86.648C105.235 86.9787 104.574 87.144 103.816 87.144C103.038 87.144 102.334 86.952 101.704 86.568C101.075 86.184 100.579 85.6453 100.216 84.952C99.8537 84.2587 99.6724 83.4693 99.6724 82.584ZM107.096 82.6C107.096 81.9387 106.963 81.3627 106.696 80.872C106.43 80.3813 106.067 80.008 105.608 79.752C105.16 79.4853 104.664 79.352 104.12 79.352C103.576 79.352 103.08 79.48 102.632 79.736C102.184 79.992 101.827 80.3653 101.56 80.856C101.294 81.3467 101.16 81.9227 101.16 82.584C101.16 83.256 101.294 83.8427 101.56 84.344C101.827 84.8347 102.184 85.2133 102.632 85.48C103.08 85.736 103.576 85.864 104.12 85.864C104.664 85.864 105.16 85.736 105.608 85.48C106.067 85.2133 106.43 84.8347 106.696 84.344C106.963 83.8427 107.096 83.2613 107.096 82.6ZM115.301 78.072C116.368 78.072 117.232 78.3973 117.893 79.048C118.554 79.688 118.885 80.616 118.885 81.832V87H117.445V82.04C117.445 81.1653 117.226 80.4987 116.789 80.04C116.352 79.5707 115.754 79.336 114.997 79.336C114.229 79.336 113.616 79.576 113.157 80.056C112.709 80.536 112.485 81.2347 112.485 82.152V87H111.029V78.232H112.485V79.48C112.773 79.032 113.162 78.6853 113.653 78.44C114.154 78.1947 114.704 78.072 115.301 78.072ZM124.985 82.584C124.985 81.688 125.166 80.904 125.529 80.232C125.892 79.5493 126.388 79.0213 127.017 78.648C127.657 78.2747 128.366 78.088 129.145 78.088C129.913 78.088 130.58 78.2533 131.145 78.584C131.71 78.9147 132.132 79.3307 132.409 79.832V78.232H133.881V87H132.409V85.368C132.121 85.88 131.689 86.3067 131.113 86.648C130.548 86.9787 129.886 87.144 129.129 87.144C128.35 87.144 127.646 86.952 127.017 86.568C126.388 86.184 125.892 85.6453 125.529 84.952C125.166 84.2587 124.985 83.4693 124.985 82.584ZM132.409 82.6C132.409 81.9387 132.276 81.3627 132.009 80.872C131.742 80.3813 131.38 80.008 130.921 79.752C130.473 79.4853 129.977 79.352 129.433 79.352C128.889 79.352 128.393 79.48 127.945 79.736C127.497 79.992 127.14 80.3653 126.873 80.856C126.606 81.3467 126.473 81.9227 126.473 82.584C126.473 83.256 126.606 83.8427 126.873 84.344C127.14 84.8347 127.497 85.2133 127.945 85.48C128.393 85.736 128.889 85.864 129.433 85.864C129.977 85.864 130.473 85.736 130.921 85.48C131.38 85.2133 131.742 84.8347 132.009 84.344C132.276 83.8427 132.409 83.2613 132.409 82.6ZM140.613 78.072C141.68 78.072 142.544 78.3973 143.205 79.048C143.867 79.688 144.197 80.616 144.197 81.832V87H142.757V82.04C142.757 81.1653 142.539 80.4987 142.101 80.04C141.664 79.5707 141.067 79.336 140.309 79.336C139.541 79.336 138.928 79.576 138.469 80.056C138.021 80.536 137.797 81.2347 137.797 82.152V87H136.341V78.232H137.797V79.48C138.085 79.032 138.475 78.6853 138.965 78.44C139.467 78.1947 140.016 78.072 140.613 78.072ZM146.032 82.584C146.032 81.688 146.213 80.904 146.576 80.232C146.938 79.5493 147.434 79.0213 148.064 78.648C148.704 78.2747 149.418 78.088 150.208 78.088C150.89 78.088 151.525 78.248 152.112 78.568C152.698 78.8773 153.146 79.288 153.456 79.8V75.16H154.928V87H153.456V85.352C153.168 85.8747 152.741 86.3067 152.176 86.648C151.61 86.9787 150.949 87.144 150.192 87.144C149.413 87.144 148.704 86.952 148.064 86.568C147.434 86.184 146.938 85.6453 146.576 84.952C146.213 84.2587 146.032 83.4693 146.032 82.584ZM153.456 82.6C153.456 81.9387 153.322 81.3627 153.056 80.872C152.789 80.3813 152.426 80.008 151.968 79.752C151.52 79.4853 151.024 79.352 150.48 79.352C149.936 79.352 149.44 79.48 148.992 79.736C148.544 79.992 148.186 80.3653 147.92 80.856C147.653 81.3467 147.52 81.9227 147.52 82.584C147.52 83.256 147.653 83.8427 147.92 84.344C148.186 84.8347 148.544 85.2133 148.992 85.48C149.44 85.736 149.936 85.864 150.48 85.864C151.024 85.864 151.52 85.736 151.968 85.48C152.426 85.2133 152.789 84.8347 153.056 84.344C153.322 83.8427 153.456 83.2613 153.456 82.6ZM165.222 79.432H163.382V87H161.926V79.432H160.79V78.232H161.926V77.608C161.926 76.6267 162.177 75.912 162.678 75.464C163.19 75.0053 164.006 74.776 165.126 74.776V75.992C164.486 75.992 164.033 76.12 163.766 76.376C163.51 76.6213 163.382 77.032 163.382 77.608V78.232H165.222V79.432ZM174.92 82.28C174.92 82.5573 174.904 82.8507 174.872 83.16H167.864C167.917 84.024 168.21 84.7013 168.744 85.192C169.288 85.672 169.944 85.912 170.712 85.912C171.341 85.912 171.864 85.768 172.28 85.48C172.706 85.1813 173.005 84.7867 173.176 84.296H174.744C174.509 85.1387 174.04 85.8267 173.336 86.36C172.632 86.8827 171.757 87.144 170.712 87.144C169.88 87.144 169.133 86.9573 168.472 86.584C167.821 86.2107 167.309 85.6827 166.936 85C166.562 84.3067 166.376 83.5067 166.376 82.6C166.376 81.6933 166.557 80.8987 166.92 80.216C167.282 79.5333 167.789 79.0107 168.44 78.648C169.101 78.2747 169.858 78.088 170.712 78.088C171.544 78.088 172.28 78.2693 172.92 78.632C173.56 78.9947 174.05 79.496 174.392 80.136C174.744 80.7653 174.92 81.48 174.92 82.28ZM173.416 81.976C173.416 81.4213 173.293 80.9467 173.048 80.552C172.802 80.1467 172.466 79.8427 172.04 79.64C171.624 79.4267 171.16 79.32 170.648 79.32C169.912 79.32 169.282 79.5547 168.76 80.024C168.248 80.4933 167.954 81.144 167.88 81.976H173.416ZM184.841 82.28C184.841 82.5573 184.825 82.8507 184.793 83.16H177.785C177.839 84.024 178.132 84.7013 178.665 85.192C179.209 85.672 179.865 85.912 180.633 85.912C181.263 85.912 181.785 85.768 182.201 85.48C182.628 85.1813 182.927 84.7867 183.097 84.296H184.665C184.431 85.1387 183.961 85.8267 183.257 86.36C182.553 86.8827 181.679 87.144 180.633 87.144C179.801 87.144 179.055 86.9573 178.393 86.584C177.743 86.2107 177.231 85.6827 176.857 85C176.484 84.3067 176.297 83.5067 176.297 82.6C176.297 81.6933 176.479 80.8987 176.841 80.216C177.204 79.5333 177.711 79.0107 178.361 78.648C179.023 78.2747 179.78 78.088 180.633 78.088C181.465 78.088 182.201 78.2693 182.841 78.632C183.481 78.9947 183.972 79.496 184.313 80.136C184.665 80.7653 184.841 81.48 184.841 82.28ZM183.337 81.976C183.337 81.4213 183.215 80.9467 182.969 80.552C182.724 80.1467 182.388 79.8427 181.961 79.64C181.545 79.4267 181.081 79.32 180.569 79.32C179.833 79.32 179.204 79.5547 178.681 80.024C178.169 80.4933 177.876 81.144 177.801 81.976H183.337ZM188.219 75.16V87H186.763V75.16H188.219ZM36.8 108.432H34.96V116H33.504V108.432H32.368V107.232H33.504V106.608C33.504 105.627 33.7547 104.912 34.256 104.464C34.768 104.005 35.584 103.776 36.704 103.776V104.992C36.064 104.992 35.6107 105.12 35.344 105.376C35.088 105.621 34.96 106.032 34.96 106.608V107.232H36.8V108.432ZM39.9536 108.656C40.2096 108.155 40.5723 107.765 41.0416 107.488C41.5216 107.211 42.103 107.072 42.7856 107.072V108.576H42.4016C40.7696 108.576 39.9536 109.461 39.9536 111.232V116H38.4976V107.232H39.9536V108.656ZM52.4664 111.28C52.4664 111.557 52.4504 111.851 52.4184 112.16H45.4104C45.4637 113.024 45.757 113.701 46.2904 114.192C46.8344 114.672 47.4904 114.912 48.2584 114.912C48.8877 114.912 49.4104 114.768 49.8264 114.48C50.253 114.181 50.5517 113.787 50.7224 113.296H52.2904C52.0557 114.139 51.5864 114.827 50.8824 115.36C50.1784 115.883 49.3037 116.144 48.2584 116.144C47.4264 116.144 46.6797 115.957 46.0184 115.584C45.3677 115.211 44.8557 114.683 44.4824 114C44.109 113.307 43.9224 112.507 43.9224 111.6C43.9224 110.693 44.1037 109.899 44.4664 109.216C44.829 108.533 45.3357 108.011 45.9864 107.648C46.6477 107.275 47.405 107.088 48.2584 107.088C49.0904 107.088 49.8264 107.269 50.4664 107.632C51.1064 107.995 51.597 108.496 51.9384 109.136C52.2904 109.765 52.4664 110.48 52.4664 111.28ZM50.9624 110.976C50.9624 110.421 50.8397 109.947 50.5944 109.552C50.349 109.147 50.013 108.843 49.5864 108.64C49.1704 108.427 48.7064 108.32 48.1944 108.32C47.4584 108.32 46.829 108.555 46.3064 109.024C45.7944 109.493 45.501 110.144 45.4264 110.976H50.9624ZM62.3883 111.28C62.3883 111.557 62.3723 111.851 62.3403 112.16H55.3323C55.3856 113.024 55.6789 113.701 56.2123 114.192C56.7563 114.672 57.4123 114.912 58.1803 114.912C58.8096 114.912 59.3323 114.768 59.7483 114.48C60.1749 114.181 60.4736 113.787 60.6443 113.296H62.2123C61.9776 114.139 61.5083 114.827 60.8043 115.36C60.1003 115.883 59.2256 116.144 58.1803 116.144C57.3483 116.144 56.6016 115.957 55.9403 115.584C55.2896 115.211 54.7776 114.683 54.4043 114C54.0309 113.307 53.8443 112.507 53.8443 111.6C53.8443 110.693 54.0256 109.899 54.3883 109.216C54.7509 108.533 55.2576 108.011 55.9083 107.648C56.5696 107.275 57.3269 107.088 58.1803 107.088C59.0123 107.088 59.7483 107.269 60.3883 107.632C61.0283 107.995 61.5189 108.496 61.8603 109.136C62.2123 109.765 62.3883 110.48 62.3883 111.28ZM60.8843 110.976C60.8843 110.421 60.7616 109.947 60.5163 109.552C60.2709 109.147 59.9349 108.843 59.5083 108.64C59.0923 108.427 58.6283 108.32 58.1163 108.32C57.3803 108.32 56.7509 108.555 56.2283 109.024C55.7163 109.493 55.4229 110.144 55.3483 110.976H60.8843ZM70.3518 108.432V113.6C70.3518 114.027 70.4424 114.331 70.6238 114.512C70.8051 114.683 71.1198 114.768 71.5677 114.768H72.6398V116H71.3278C70.5171 116 69.9091 115.813 69.5038 115.44C69.0984 115.067 68.8958 114.453 68.8958 113.6V108.432H67.7598V107.232H68.8958V105.024H70.3518V107.232H72.6398V108.432H70.3518ZM78.2279 116.144C77.4065 116.144 76.6599 115.957 75.9879 115.584C75.3265 115.211 74.8039 114.683 74.4199 114C74.0465 113.307 73.8599 112.507 73.8599 111.6C73.8599 110.704 74.0519 109.915 74.4359 109.232C74.8305 108.539 75.3639 108.011 76.0359 107.648C76.7079 107.275 77.4599 107.088 78.2919 107.088C79.1239 107.088 79.8759 107.275 80.5479 107.648C81.2199 108.011 81.7479 108.533 82.1319 109.216C82.5265 109.899 82.7239 110.693 82.7239 111.6C82.7239 112.507 82.5212 113.307 82.1159 114C81.7212 114.683 81.1825 115.211 80.4999 115.584C79.8172 115.957 79.0599 116.144 78.2279 116.144ZM78.2279 114.864C78.7505 114.864 79.2412 114.741 79.6999 114.496C80.1585 114.251 80.5265 113.883 80.8039 113.392C81.0919 112.901 81.2359 112.304 81.2359 111.6C81.2359 110.896 81.0972 110.299 80.8199 109.808C80.5425 109.317 80.1799 108.955 79.7319 108.72C79.2839 108.475 78.7985 108.352 78.2759 108.352C77.7425 108.352 77.2519 108.475 76.8039 108.72C76.3665 108.955 76.0145 109.317 75.7479 109.808C75.4812 110.299 75.3479 110.896 75.3479 111.6C75.3479 112.315 75.4759 112.917 75.7319 113.408C75.9985 113.899 76.3505 114.267 76.7879 114.512C77.2252 114.747 77.7052 114.864 78.2279 114.864ZM88.3599 111.584C88.3599 110.688 88.5412 109.904 88.9039 109.232C89.2665 108.549 89.7625 108.021 90.3919 107.648C91.0319 107.275 91.7412 107.088 92.5199 107.088C93.2879 107.088 93.9545 107.253 94.5199 107.584C95.0852 107.915 95.5065 108.331 95.7839 108.832V107.232H97.2559V116H95.7839V114.368C95.4959 114.88 95.0639 115.307 94.4879 115.648C93.9225 115.979 93.2612 116.144 92.5039 116.144C91.7252 116.144 91.0212 115.952 90.3919 115.568C89.7625 115.184 89.2665 114.645 88.9039 113.952C88.5412 113.259 88.3599 112.469 88.3599 111.584ZM95.7839 111.6C95.7839 110.939 95.6505 110.363 95.3839 109.872C95.1172 109.381 94.7545 109.008 94.2959 108.752C93.8479 108.485 93.3519 108.352 92.8079 108.352C92.2639 108.352 91.7679 108.48 91.3199 108.736C90.8719 108.992 90.5145 109.365 90.2479 109.856C89.9812 110.347 89.8479 110.923 89.8479 111.584C89.8479 112.256 89.9812 112.843 90.2479 113.344C90.5145 113.835 90.8719 114.213 91.3199 114.48C91.7679 114.736 92.2639 114.864 92.8079 114.864C93.3519 114.864 93.8479 114.736 94.2959 114.48C94.7545 114.213 95.1172 113.835 95.3839 113.344C95.6505 112.843 95.7839 112.261 95.7839 111.6ZM102.82 116.144C102.148 116.144 101.546 116.032 101.012 115.808C100.479 115.573 100.058 115.253 99.7484 114.848C99.439 114.432 99.2684 113.957 99.2364 113.424H100.74C100.783 113.861 100.986 114.219 101.348 114.496C101.722 114.773 102.207 114.912 102.804 114.912C103.359 114.912 103.796 114.789 104.116 114.544C104.436 114.299 104.596 113.989 104.596 113.616C104.596 113.232 104.426 112.949 104.084 112.768C103.743 112.576 103.215 112.389 102.5 112.208C101.85 112.037 101.316 111.867 100.9 111.696C100.495 111.515 100.143 111.253 99.8444 110.912C99.5564 110.56 99.4124 110.101 99.4124 109.536C99.4124 109.088 99.5457 108.677 99.8124 108.304C100.079 107.931 100.458 107.637 100.948 107.424C101.439 107.2 101.999 107.088 102.628 107.088C103.599 107.088 104.383 107.333 104.98 107.824C105.578 108.315 105.898 108.987 105.94 109.84H104.484C104.452 109.381 104.266 109.013 103.924 108.736C103.594 108.459 103.146 108.32 102.58 108.32C102.058 108.32 101.642 108.432 101.332 108.656C101.023 108.88 100.868 109.173 100.868 109.536C100.868 109.824 100.959 110.064 101.14 110.256C101.332 110.437 101.567 110.587 101.844 110.704C102.132 110.811 102.527 110.933 103.028 111.072C103.658 111.243 104.17 111.413 104.564 111.584C104.959 111.744 105.295 111.989 105.572 112.32C105.86 112.651 106.01 113.083 106.02 113.616C106.02 114.096 105.887 114.528 105.62 114.912C105.354 115.296 104.975 115.6 104.484 115.824C104.004 116.037 103.45 116.144 102.82 116.144ZM112.972 116L109.532 112.128V116H108.076V104.16H109.532V111.12L112.908 107.232H114.94L110.812 111.6L114.956 116H112.972ZM124.144 108.432H122.304V116H120.848V108.432H119.712V107.232H120.848V106.608C120.848 105.627 121.098 104.912 121.6 104.464C122.112 104.005 122.928 103.776 124.048 103.776V104.992C123.408 104.992 122.954 105.12 122.688 105.376C122.432 105.621 122.304 106.032 122.304 106.608V107.232H124.144V108.432ZM129.665 116.144C128.844 116.144 128.097 115.957 127.425 115.584C126.764 115.211 126.241 114.683 125.857 114C125.484 113.307 125.297 112.507 125.297 111.6C125.297 110.704 125.489 109.915 125.873 109.232C126.268 108.539 126.801 108.011 127.473 107.648C128.145 107.275 128.897 107.088 129.729 107.088C130.561 107.088 131.313 107.275 131.985 107.648C132.657 108.011 133.185 108.533 133.569 109.216C133.964 109.899 134.161 110.693 134.161 111.6C134.161 112.507 133.959 113.307 133.553 114C133.159 114.683 132.62 115.211 131.937 115.584C131.255 115.957 130.497 116.144 129.665 116.144ZM129.665 114.864C130.188 114.864 130.679 114.741 131.137 114.496C131.596 114.251 131.964 113.883 132.241 113.392C132.529 112.901 132.673 112.304 132.673 111.6C132.673 110.896 132.535 110.299 132.257 109.808C131.98 109.317 131.617 108.955 131.169 108.72C130.721 108.475 130.236 108.352 129.713 108.352C129.18 108.352 128.689 108.475 128.241 108.72C127.804 108.955 127.452 109.317 127.185 109.808C126.919 110.299 126.785 110.896 126.785 111.6C126.785 112.315 126.913 112.917 127.169 113.408C127.436 113.899 127.788 114.267 128.225 114.512C128.663 114.747 129.143 114.864 129.665 114.864ZM137.532 108.656C137.788 108.155 138.15 107.765 138.62 107.488C139.1 107.211 139.681 107.072 140.364 107.072V108.576H139.98C138.348 108.576 137.532 109.461 137.532 111.232V116H136.076V107.232H137.532V108.656ZM145.766 111.584C145.766 110.688 145.947 109.904 146.31 109.232C146.673 108.549 147.169 108.021 147.798 107.648C148.438 107.275 149.147 107.088 149.926 107.088C150.694 107.088 151.361 107.253 151.926 107.584C152.491 107.915 152.913 108.331 153.19 108.832V107.232H154.662V116H153.19V114.368C152.902 114.88 152.47 115.307 151.894 115.648C151.329 115.979 150.667 116.144 149.91 116.144C149.131 116.144 148.427 115.952 147.798 115.568C147.169 115.184 146.673 114.645 146.31 113.952C145.947 113.259 145.766 112.469 145.766 111.584ZM153.19 111.6C153.19 110.939 153.057 110.363 152.79 109.872C152.523 109.381 152.161 109.008 151.702 108.752C151.254 108.485 150.758 108.352 150.214 108.352C149.67 108.352 149.174 108.48 148.726 108.736C148.278 108.992 147.921 109.365 147.654 109.856C147.387 110.347 147.254 110.923 147.254 111.584C147.254 112.256 147.387 112.843 147.654 113.344C147.921 113.835 148.278 114.213 148.726 114.48C149.174 114.736 149.67 114.864 150.214 114.864C150.758 114.864 151.254 114.736 151.702 114.48C152.161 114.213 152.523 113.835 152.79 113.344C153.057 112.843 153.19 112.261 153.19 111.6ZM160.227 116.144C159.555 116.144 158.952 116.032 158.419 115.808C157.885 115.573 157.464 115.253 157.155 114.848C156.845 114.432 156.675 113.957 156.643 113.424H158.147C158.189 113.861 158.392 114.219 158.755 114.496C159.128 114.773 159.613 114.912 160.211 114.912C160.765 114.912 161.203 114.789 161.523 114.544C161.843 114.299 162.003 113.989 162.003 113.616C162.003 113.232 161.832 112.949 161.491 112.768C161.149 112.576 160.621 112.389 159.907 112.208C159.256 112.037 158.723 111.867 158.307 111.696C157.901 111.515 157.549 111.253 157.251 110.912C156.963 110.56 156.819 110.101 156.819 109.536C156.819 109.088 156.952 108.677 157.219 108.304C157.485 107.931 157.864 107.637 158.355 107.424C158.845 107.2 159.405 107.088 160.035 107.088C161.005 107.088 161.789 107.333 162.387 107.824C162.984 108.315 163.304 108.987 163.347 109.84H161.891C161.859 109.381 161.672 109.013 161.331 108.736C161 108.459 160.552 108.32 159.987 108.32C159.464 108.32 159.048 108.432 158.739 108.656C158.429 108.88 158.275 109.173 158.275 109.536C158.275 109.824 158.365 110.064 158.547 110.256C158.739 110.437 158.973 110.587 159.251 110.704C159.539 110.811 159.933 110.933 160.435 111.072C161.064 111.243 161.576 111.413 161.971 111.584C162.365 111.744 162.701 111.989 162.979 112.32C163.267 112.651 163.416 113.083 163.427 113.616C163.427 114.096 163.293 114.528 163.027 114.912C162.76 115.296 162.381 115.6 161.891 115.824C161.411 116.037 160.856 116.144 160.227 116.144ZM180.292 107.072C180.974 107.072 181.582 107.216 182.116 107.504C182.649 107.781 183.07 108.203 183.38 108.768C183.689 109.333 183.844 110.021 183.844 110.832V116H182.404V111.04C182.404 110.165 182.185 109.499 181.748 109.04C181.321 108.571 180.74 108.336 180.004 108.336C179.246 108.336 178.644 108.581 178.196 109.072C177.748 109.552 177.524 110.251 177.524 111.168V116H176.084V111.04C176.084 110.165 175.865 109.499 175.428 109.04C175.001 108.571 174.42 108.336 173.684 108.336C172.926 108.336 172.324 108.581 171.876 109.072C171.428 109.552 171.204 110.251 171.204 111.168V116H169.748V107.232H171.204V108.496C171.492 108.037 171.876 107.685 172.356 107.44C172.846 107.195 173.385 107.072 173.972 107.072C174.708 107.072 175.358 107.237 175.924 107.568C176.489 107.899 176.91 108.384 177.188 109.024C177.433 108.405 177.838 107.925 178.404 107.584C178.969 107.243 179.598 107.072 180.292 107.072ZM185.688 111.584C185.688 110.688 185.869 109.904 186.232 109.232C186.595 108.549 187.091 108.021 187.72 107.648C188.36 107.275 189.069 107.088 189.848 107.088C190.616 107.088 191.283 107.253 191.848 107.584C192.413 107.915 192.835 108.331 193.112 108.832V107.232H194.584V116H193.112V114.368C192.824 114.88 192.392 115.307 191.816 115.648C191.251 115.979 190.589 116.144 189.832 116.144C189.053 116.144 188.349 115.952 187.72 115.568C187.091 115.184 186.595 114.645 186.232 113.952C185.869 113.259 185.688 112.469 185.688 111.584ZM193.112 111.6C193.112 110.939 192.979 110.363 192.712 109.872C192.445 109.381 192.083 109.008 191.624 108.752C191.176 108.485 190.68 108.352 190.136 108.352C189.592 108.352 189.096 108.48 188.648 108.736C188.2 108.992 187.843 109.365 187.576 109.856C187.309 110.347 187.176 110.923 187.176 111.584C187.176 112.256 187.309 112.843 187.576 113.344C187.843 113.835 188.2 114.213 188.648 114.48C189.096 114.736 189.592 114.864 190.136 114.864C190.68 114.864 191.176 114.736 191.624 114.48C192.083 114.213 192.445 113.835 192.712 113.344C192.979 112.843 193.112 112.261 193.112 111.6ZM201.317 107.072C202.383 107.072 203.247 107.397 203.909 108.048C204.57 108.688 204.901 109.616 204.901 110.832V116H203.461V111.04C203.461 110.165 203.242 109.499 202.805 109.04C202.367 108.571 201.77 108.336 201.013 108.336C200.245 108.336 199.631 108.576 199.173 109.056C198.725 109.536 198.501 110.235 198.501 111.152V116H197.045V107.232H198.501V108.48C198.789 108.032 199.178 107.685 199.669 107.44C200.17 107.195 200.719 107.072 201.317 107.072ZM214.831 107.232L209.551 120.128H208.047L209.775 115.904L206.239 107.232H207.855L210.607 114.336L213.327 107.232H214.831ZM32.688 140.584C32.688 139.688 32.8693 138.904 33.232 138.232C33.5947 137.549 34.0907 137.021 34.72 136.648C35.36 136.275 36.0747 136.088 36.864 136.088C37.5467 136.088 38.1813 136.248 38.768 136.568C39.3547 136.877 39.8027 137.288 40.112 137.8V133.16H41.584V145H40.112V143.352C39.824 143.875 39.3973 144.307 38.832 144.648C38.2667 144.979 37.6053 145.144 36.848 145.144C36.0693 145.144 35.36 144.952 34.72 144.568C34.0907 144.184 33.5947 143.645 33.232 142.952C32.8693 142.259 32.688 141.469 32.688 140.584ZM40.112 140.6C40.112 139.939 39.9787 139.363 39.712 138.872C39.4453 138.381 39.0827 138.008 38.624 137.752C38.176 137.485 37.68 137.352 37.136 137.352C36.592 137.352 36.096 137.48 35.648 137.736C35.2 137.992 34.8427 138.365 34.576 138.856C34.3093 139.347 34.176 139.923 34.176 140.584C34.176 141.256 34.3093 141.843 34.576 142.344C34.8427 142.835 35.2 143.213 35.648 143.48C36.096 143.736 36.592 143.864 37.136 143.864C37.68 143.864 38.176 143.736 38.624 143.48C39.0827 143.213 39.4453 142.835 39.712 142.344C39.9787 141.843 40.112 141.261 40.112 140.6ZM52.0445 140.28C52.0445 140.557 52.0285 140.851 51.9965 141.16H44.9885C45.0418 142.024 45.3352 142.701 45.8685 143.192C46.4125 143.672 47.0685 143.912 47.8365 143.912C48.4658 143.912 48.9885 143.768 49.4045 143.48C49.8312 143.181 50.1298 142.787 50.3005 142.296H51.8685C51.6338 143.139 51.1645 143.827 50.4605 144.36C49.7565 144.883 48.8818 145.144 47.8365 145.144C47.0045 145.144 46.2578 144.957 45.5965 144.584C44.9458 144.211 44.4338 143.683 44.0605 143C43.6872 142.307 43.5005 141.507 43.5005 140.6C43.5005 139.693 43.6818 138.899 44.0445 138.216C44.4072 137.533 44.9138 137.011 45.5645 136.648C46.2258 136.275 46.9832 136.088 47.8365 136.088C48.6685 136.088 49.4045 136.269 50.0445 136.632C50.6845 136.995 51.1752 137.496 51.5165 138.136C51.8685 138.765 52.0445 139.48 52.0445 140.28ZM50.5405 139.976C50.5405 139.421 50.4178 138.947 50.1725 138.552C49.9272 138.147 49.5912 137.843 49.1645 137.64C48.7485 137.427 48.2845 137.32 47.7725 137.32C47.0365 137.32 46.4072 137.555 45.8845 138.024C45.3725 138.493 45.0792 139.144 45.0045 139.976H50.5405ZM57.0704 145.144C56.3984 145.144 55.7957 145.032 55.2624 144.808C54.729 144.573 54.3077 144.253 53.9984 143.848C53.689 143.432 53.5184 142.957 53.4864 142.424H54.9904C55.033 142.861 55.2357 143.219 55.5984 143.496C55.9717 143.773 56.457 143.912 57.0544 143.912C57.609 143.912 58.0464 143.789 58.3664 143.544C58.6864 143.299 58.8464 142.989 58.8464 142.616C58.8464 142.232 58.6757 141.949 58.3344 141.768C57.993 141.576 57.465 141.389 56.7504 141.208C56.0997 141.037 55.5664 140.867 55.1504 140.696C54.745 140.515 54.393 140.253 54.0944 139.912C53.8064 139.56 53.6624 139.101 53.6624 138.536C53.6624 138.088 53.7957 137.677 54.0624 137.304C54.329 136.931 54.7077 136.637 55.1984 136.424C55.689 136.2 56.249 136.088 56.8784 136.088C57.849 136.088 58.633 136.333 59.2304 136.824C59.8277 137.315 60.1477 137.987 60.1904 138.84H58.7344C58.7024 138.381 58.5157 138.013 58.1744 137.736C57.8437 137.459 57.3957 137.32 56.8304 137.32C56.3077 137.32 55.8917 137.432 55.5824 137.656C55.273 137.88 55.1184 138.173 55.1184 138.536C55.1184 138.824 55.209 139.064 55.3904 139.256C55.5824 139.437 55.817 139.587 56.0944 139.704C56.3824 139.811 56.777 139.933 57.2784 140.072C57.9077 140.243 58.4197 140.413 58.8144 140.584C59.209 140.744 59.545 140.989 59.8224 141.32C60.1104 141.651 60.2597 142.083 60.2704 142.616C60.2704 143.096 60.137 143.528 59.8704 143.912C59.6037 144.296 59.225 144.6 58.7344 144.824C58.2544 145.037 57.6997 145.144 57.0704 145.144ZM63.0778 134.808C62.8004 134.808 62.5658 134.712 62.3738 134.52C62.1818 134.328 62.0858 134.093 62.0858 133.816C62.0858 133.539 62.1818 133.304 62.3738 133.112C62.5658 132.92 62.8004 132.824 63.0778 132.824C63.3444 132.824 63.5684 132.92 63.7498 133.112C63.9418 133.304 64.0378 133.539 64.0378 133.816C64.0378 134.093 63.9418 134.328 63.7498 134.52C63.5684 134.712 63.3444 134.808 63.0778 134.808ZM63.7818 136.232V145H62.3258V136.232H63.7818ZM69.8793 136.088C70.6366 136.088 71.2979 136.253 71.8633 136.584C72.4393 136.915 72.8659 137.331 73.1433 137.832V136.232H74.6153V145.192C74.6153 145.992 74.4446 146.701 74.1033 147.32C73.7619 147.949 73.2713 148.44 72.6313 148.792C72.0019 149.144 71.2659 149.32 70.4233 149.32C69.2713 149.32 68.3113 149.048 67.5433 148.504C66.7753 147.96 66.3219 147.219 66.1833 146.28H67.6233C67.7833 146.813 68.1139 147.24 68.6153 147.56C69.1166 147.891 69.7193 148.056 70.4233 148.056C71.2233 148.056 71.8739 147.805 72.3753 147.304C72.8873 146.803 73.1433 146.099 73.1433 145.192V143.352C72.8553 143.864 72.4286 144.291 71.8633 144.632C71.2979 144.973 70.6366 145.144 69.8793 145.144C69.1006 145.144 68.3913 144.952 67.7513 144.568C67.1219 144.184 66.6259 143.645 66.2633 142.952C65.9006 142.259 65.7193 141.469 65.7193 140.584C65.7193 139.688 65.9006 138.904 66.2633 138.232C66.6259 137.549 67.1219 137.021 67.7513 136.648C68.3913 136.275 69.1006 136.088 69.8793 136.088ZM73.1433 140.6C73.1433 139.939 73.0099 139.363 72.7433 138.872C72.4766 138.381 72.1139 138.008 71.6553 137.752C71.2073 137.485 70.7113 137.352 70.1673 137.352C69.6233 137.352 69.1273 137.48 68.6793 137.736C68.2313 137.992 67.8739 138.365 67.6073 138.856C67.3406 139.347 67.2073 139.923 67.2073 140.584C67.2073 141.256 67.3406 141.843 67.6073 142.344C67.8739 142.835 68.2313 143.213 68.6793 143.48C69.1273 143.736 69.6233 143.864 70.1673 143.864C70.7113 143.864 71.2073 143.736 71.6553 143.48C72.1139 143.213 72.4766 142.835 72.7433 142.344C73.0099 141.843 73.1433 141.261 73.1433 140.6ZM81.3478 136.072C82.4144 136.072 83.2784 136.397 83.9398 137.048C84.6011 137.688 84.9318 138.616 84.9318 139.832V145H83.4918V140.04C83.4918 139.165 83.2731 138.499 82.8358 138.04C82.3984 137.571 81.8011 137.336 81.0438 137.336C80.2758 137.336 79.6624 137.576 79.2038 138.056C78.7558 138.536 78.5318 139.235 78.5318 140.152V145H77.0758V136.232H78.5318V137.48C78.8198 137.032 79.2091 136.685 79.6998 136.44C80.2011 136.195 80.7504 136.072 81.3478 136.072ZM90.4141 145.144C89.7421 145.144 89.1395 145.032 88.6061 144.808C88.0728 144.573 87.6515 144.253 87.3421 143.848C87.0328 143.432 86.8621 142.957 86.8301 142.424H88.3341C88.3768 142.861 88.5795 143.219 88.9421 143.496C89.3155 143.773 89.8008 143.912 90.3981 143.912C90.9528 143.912 91.3901 143.789 91.7101 143.544C92.0301 143.299 92.1901 142.989 92.1901 142.616C92.1901 142.232 92.0195 141.949 91.6781 141.768C91.3368 141.576 90.8088 141.389 90.0941 141.208C89.4435 141.037 88.9101 140.867 88.4941 140.696C88.0888 140.515 87.7368 140.253 87.4381 139.912C87.1501 139.56 87.0061 139.101 87.0061 138.536C87.0061 138.088 87.1395 137.677 87.4061 137.304C87.6728 136.931 88.0515 136.637 88.5421 136.424C89.0328 136.2 89.5928 136.088 90.2221 136.088C91.1928 136.088 91.9768 136.333 92.5741 136.824C93.1715 137.315 93.4915 137.987 93.5341 138.84H92.0781C92.0461 138.381 91.8595 138.013 91.5181 137.736C91.1875 137.459 90.7395 137.32 90.1741 137.32C89.6515 137.32 89.2355 137.432 88.9261 137.656C88.6168 137.88 88.4621 138.173 88.4621 138.536C88.4621 138.824 88.5528 139.064 88.7341 139.256C88.9261 139.437 89.1608 139.587 89.4381 139.704C89.7261 139.811 90.1208 139.933 90.6221 140.072C91.2515 140.243 91.7635 140.413 92.1581 140.584C92.5528 140.744 92.8888 140.989 93.1661 141.32C93.4541 141.651 93.6035 142.083 93.6141 142.616C93.6141 143.096 93.4808 143.528 93.2141 143.912C92.9475 144.296 92.5688 144.6 92.0781 144.824C91.5981 145.037 91.0435 145.144 90.4141 145.144ZM99.3911 140.584C99.3911 139.688 99.5725 138.904 99.9351 138.232C100.298 137.549 100.794 137.021 101.423 136.648C102.063 136.275 102.772 136.088 103.551 136.088C104.319 136.088 104.986 136.253 105.551 136.584C106.116 136.915 106.538 137.331 106.815 137.832V136.232H108.287V145H106.815V143.368C106.527 143.88 106.095 144.307 105.519 144.648C104.954 144.979 104.292 145.144 103.535 145.144C102.756 145.144 102.052 144.952 101.423 144.568C100.794 144.184 100.298 143.645 99.9351 142.952C99.5725 142.259 99.3911 141.469 99.3911 140.584ZM106.815 140.6C106.815 139.939 106.682 139.363 106.415 138.872C106.148 138.381 105.786 138.008 105.327 137.752C104.879 137.485 104.383 137.352 103.839 137.352C103.295 137.352 102.799 137.48 102.351 137.736C101.903 137.992 101.546 138.365 101.279 138.856C101.012 139.347 100.879 139.923 100.879 140.584C100.879 141.256 101.012 141.843 101.279 142.344C101.546 142.835 101.903 143.213 102.351 143.48C102.799 143.736 103.295 143.864 103.839 143.864C104.383 143.864 104.879 143.736 105.327 143.48C105.786 143.213 106.148 142.835 106.415 142.344C106.682 141.843 106.815 141.261 106.815 140.6ZM113.852 145.144C113.18 145.144 112.577 145.032 112.044 144.808C111.51 144.573 111.089 144.253 110.78 143.848C110.47 143.432 110.3 142.957 110.268 142.424H111.772C111.814 142.861 112.017 143.219 112.38 143.496C112.753 143.773 113.238 143.912 113.836 143.912C114.39 143.912 114.828 143.789 115.148 143.544C115.468 143.299 115.628 142.989 115.628 142.616C115.628 142.232 115.457 141.949 115.116 141.768C114.774 141.576 114.246 141.389 113.532 141.208C112.881 141.037 112.348 140.867 111.932 140.696C111.526 140.515 111.174 140.253 110.876 139.912C110.588 139.56 110.444 139.101 110.444 138.536C110.444 138.088 110.577 137.677 110.844 137.304C111.11 136.931 111.489 136.637 111.98 136.424C112.47 136.2 113.03 136.088 113.66 136.088C114.63 136.088 115.414 136.333 116.012 136.824C116.609 137.315 116.929 137.987 116.972 138.84H115.516C115.484 138.381 115.297 138.013 114.956 137.736C114.625 137.459 114.177 137.32 113.612 137.32C113.089 137.32 112.673 137.432 112.364 137.656C112.054 137.88 111.9 138.173 111.9 138.536C111.9 138.824 111.99 139.064 112.172 139.256C112.364 139.437 112.598 139.587 112.876 139.704C113.164 139.811 113.558 139.933 114.06 140.072C114.689 140.243 115.201 140.413 115.596 140.584C115.99 140.744 116.326 140.989 116.604 141.32C116.892 141.651 117.041 142.083 117.052 142.616C117.052 143.096 116.918 143.528 116.652 143.912C116.385 144.296 116.006 144.6 115.516 144.824C115.036 145.037 114.481 145.144 113.852 145.144ZM130.925 136.232L125.645 149.128H124.141L125.869 144.904L122.333 136.232H123.949L126.701 143.336L129.421 136.232H130.925ZM136.212 145.144C135.391 145.144 134.644 144.957 133.972 144.584C133.311 144.211 132.788 143.683 132.404 143C132.031 142.307 131.844 141.507 131.844 140.6C131.844 139.704 132.036 138.915 132.42 138.232C132.815 137.539 133.348 137.011 134.02 136.648C134.692 136.275 135.444 136.088 136.276 136.088C137.108 136.088 137.86 136.275 138.532 136.648C139.204 137.011 139.732 137.533 140.116 138.216C140.511 138.899 140.708 139.693 140.708 140.6C140.708 141.507 140.506 142.307 140.1 143C139.706 143.683 139.167 144.211 138.484 144.584C137.802 144.957 137.044 145.144 136.212 145.144ZM136.212 143.864C136.735 143.864 137.226 143.741 137.684 143.496C138.143 143.251 138.511 142.883 138.788 142.392C139.076 141.901 139.22 141.304 139.22 140.6C139.22 139.896 139.082 139.299 138.804 138.808C138.527 138.317 138.164 137.955 137.716 137.72C137.268 137.475 136.783 137.352 136.26 137.352C135.727 137.352 135.236 137.475 134.788 137.72C134.351 137.955 133.999 138.317 133.732 138.808C133.466 139.299 133.332 139.896 133.332 140.6C133.332 141.315 133.46 141.917 133.716 142.408C133.983 142.899 134.335 143.267 134.772 143.512C135.21 143.747 135.69 143.864 136.212 143.864ZM150.399 136.232V145H148.943V143.704C148.665 144.152 148.276 144.504 147.775 144.76C147.284 145.005 146.74 145.128 146.143 145.128C145.46 145.128 144.847 144.989 144.303 144.712C143.759 144.424 143.327 143.997 143.007 143.432C142.697 142.867 142.543 142.179 142.543 141.368V136.232H143.983V141.176C143.983 142.04 144.201 142.707 144.639 143.176C145.076 143.635 145.673 143.864 146.431 143.864C147.209 143.864 147.823 143.624 148.271 143.144C148.719 142.664 148.943 141.965 148.943 141.048V136.232H150.399ZM161.395 136.072C162.461 136.072 163.325 136.397 163.987 137.048C164.648 137.688 164.979 138.616 164.979 139.832V145H163.539V140.04C163.539 139.165 163.32 138.499 162.883 138.04C162.445 137.571 161.848 137.336 161.091 137.336C160.323 137.336 159.709 137.576 159.251 138.056C158.803 138.536 158.579 139.235 158.579 140.152V145H157.123V136.232H158.579V137.48C158.867 137.032 159.256 136.685 159.747 136.44C160.248 136.195 160.797 136.072 161.395 136.072ZM175.357 140.28C175.357 140.557 175.341 140.851 175.309 141.16H168.301C168.354 142.024 168.648 142.701 169.181 143.192C169.725 143.672 170.381 143.912 171.149 143.912C171.778 143.912 172.301 143.768 172.717 143.48C173.144 143.181 173.442 142.787 173.613 142.296H175.181C174.946 143.139 174.477 143.827 173.773 144.36C173.069 144.883 172.194 145.144 171.149 145.144C170.317 145.144 169.57 144.957 168.909 144.584C168.258 144.211 167.746 143.683 167.373 143C167 142.307 166.813 141.507 166.813 140.6C166.813 139.693 166.994 138.899 167.357 138.216C167.72 137.533 168.226 137.011 168.877 136.648C169.538 136.275 170.296 136.088 171.149 136.088C171.981 136.088 172.717 136.269 173.357 136.632C173.997 136.995 174.488 137.496 174.829 138.136C175.181 138.765 175.357 139.48 175.357 140.28ZM173.853 139.976C173.853 139.421 173.73 138.947 173.485 138.552C173.24 138.147 172.904 137.843 172.477 137.64C172.061 137.427 171.597 137.32 171.085 137.32C170.349 137.32 169.72 137.555 169.197 138.024C168.685 138.493 168.392 139.144 168.317 139.976H173.853ZM185.279 140.28C185.279 140.557 185.263 140.851 185.231 141.16H178.223C178.276 142.024 178.57 142.701 179.103 143.192C179.647 143.672 180.303 143.912 181.071 143.912C181.7 143.912 182.223 143.768 182.639 143.48C183.066 143.181 183.364 142.787 183.535 142.296H185.103C184.868 143.139 184.399 143.827 183.695 144.36C182.991 144.883 182.116 145.144 181.071 145.144C180.239 145.144 179.492 144.957 178.831 144.584C178.18 144.211 177.668 143.683 177.295 143C176.922 142.307 176.735 141.507 176.735 140.6C176.735 139.693 176.916 138.899 177.279 138.216C177.642 137.533 178.148 137.011 178.799 136.648C179.46 136.275 180.218 136.088 181.071 136.088C181.903 136.088 182.639 136.269 183.279 136.632C183.919 136.995 184.41 137.496 184.751 138.136C185.103 138.765 185.279 139.48 185.279 140.28ZM183.775 139.976C183.775 139.421 183.652 138.947 183.407 138.552C183.162 138.147 182.826 137.843 182.399 137.64C181.983 137.427 181.519 137.32 181.007 137.32C180.271 137.32 179.642 137.555 179.119 138.024C178.607 138.493 178.314 139.144 178.239 139.976H183.775ZM186.657 140.584C186.657 139.688 186.838 138.904 187.201 138.232C187.563 137.549 188.059 137.021 188.689 136.648C189.329 136.275 190.043 136.088 190.833 136.088C191.515 136.088 192.15 136.248 192.737 136.568C193.323 136.877 193.771 137.288 194.081 137.8V133.16H195.553V145H194.081V143.352C193.793 143.875 193.366 144.307 192.801 144.648C192.235 144.979 191.574 145.144 190.817 145.144C190.038 145.144 189.329 144.952 188.689 144.568C188.059 144.184 187.563 143.645 187.201 142.952C186.838 142.259 186.657 141.469 186.657 140.584ZM194.081 140.6C194.081 139.939 193.947 139.363 193.681 138.872C193.414 138.381 193.051 138.008 192.593 137.752C192.145 137.485 191.649 137.352 191.105 137.352C190.561 137.352 190.065 137.48 189.617 137.736C189.169 137.992 188.811 138.365 188.545 138.856C188.278 139.347 188.145 139.923 188.145 140.584C188.145 141.256 188.278 141.843 188.545 142.344C188.811 142.835 189.169 143.213 189.617 143.48C190.065 143.736 190.561 143.864 191.105 143.864C191.649 143.864 192.145 143.736 192.593 143.48C193.051 143.213 193.414 142.835 193.681 142.344C193.947 141.843 194.081 141.261 194.081 140.6Z" fill="#B7B7B7"/>
<defs>
<clipPath id="clip0_41_85">
<rect width="24" height="24" fill="white" transform="translate(32 32.5)"/>
</clipPath>
</defs>
</svg>
