<svg width="409" height="171" viewBox="0 0 409 171" fill="none" xmlns="http://www.w3.org/2000/svg">
<g filter="url(#filter0_bd_162_29)">
<rect x="16" y="12" width="377" height="139" rx="15" fill="white" fill-opacity="0.15" shape-rendering="crispEdges"/>
<rect x="15.5" y="11.5" width="378" height="140" rx="15.5" stroke="url(#paint0_linear_162_29)" shape-rendering="crispEdges"/>
</g>
<path d="M200 104C202.833 98.5 211.2 88.9 216 86.5C222 83.5 238.5 89 244 89C249.5 89 260.5 78.5 267 78C273.5 77.5 295.5 76.5 312 82.5C328.5 88.5 331.5 72 350 65C359.5 60.25 346.5 39 370 39" stroke="url(#paint1_linear_162_29)" stroke-width="2.5" stroke-linecap="round"/>
<path d="M42.032 55.288C40.736 55.288 39.528 55.08 38.408 54.664C37.304 54.232 36.344 53.624 35.528 52.84C34.712 52.056 34.072 51.136 33.608 50.08C33.16 49.024 32.936 47.864 32.936 46.6C32.936 45.336 33.16 44.176 33.608 43.12C34.072 42.064 34.712 41.144 35.528 40.36C36.36 39.576 37.328 38.976 38.432 38.56C39.536 38.128 40.744 37.912 42.056 37.912C43.512 37.912 44.824 38.168 45.992 38.68C47.176 39.176 48.168 39.912 48.968 40.888L46.472 43.192C45.896 42.536 45.256 42.048 44.552 41.728C43.848 41.392 43.08 41.224 42.248 41.224C41.464 41.224 40.744 41.352 40.088 41.608C39.432 41.864 38.864 42.232 38.384 42.712C37.904 43.192 37.528 43.76 37.256 44.416C37 45.072 36.872 45.8 36.872 46.6C36.872 47.4 37 48.128 37.256 48.784C37.528 49.44 37.904 50.008 38.384 50.488C38.864 50.968 39.432 51.336 40.088 51.592C40.744 51.848 41.464 51.976 42.248 51.976C43.08 51.976 43.848 51.816 44.552 51.496C45.256 51.16 45.896 50.656 46.472 49.984L48.968 52.288C48.168 53.264 47.176 54.008 45.992 54.52C44.824 55.032 43.504 55.288 42.032 55.288ZM51.5936 55V38.2H58.8656C60.3696 38.2 61.6656 38.448 62.7536 38.944C63.8416 39.424 64.6816 40.12 65.2736 41.032C65.8656 41.944 66.1616 43.032 66.1616 44.296C66.1616 45.544 65.8656 46.624 65.2736 47.536C64.6816 48.432 63.8416 49.12 62.7536 49.6C61.6656 50.08 60.3696 50.32 58.8656 50.32H53.7536L55.4816 48.616V55H51.5936ZM62.2736 55L58.0736 48.904H62.2256L66.4736 55H62.2736ZM55.4816 49.048L53.7536 47.224H58.6496C59.8496 47.224 60.7456 46.968 61.3376 46.456C61.9296 45.928 62.2256 45.208 62.2256 44.296C62.2256 43.368 61.9296 42.648 61.3376 42.136C60.7456 41.624 59.8496 41.368 58.6496 41.368H53.7536L55.4816 39.52V49.048ZM69.242 55V38.2H72.458L79.61 50.056H77.906L84.938 38.2H88.13L88.178 55H84.53L84.506 43.792H85.178L79.562 53.224H77.81L72.074 43.792H72.89V55H69.242Z" fill="black"/>
<path d="M39.0335 101V91.2H42.7015C43.5322 91.2 44.2462 91.3353 44.8435 91.606C45.4408 91.8673 45.8982 92.25 46.2155 92.754C46.5422 93.2487 46.7055 93.8507 46.7055 94.56C46.7055 95.2507 46.5422 95.848 46.2155 96.352C45.8982 96.8467 45.4408 97.2293 44.8435 97.5C44.2462 97.7707 43.5322 97.906 42.7015 97.906H39.6075L40.0695 97.416V101H39.0335ZM40.0695 97.5L39.6075 96.996H42.6735C43.6535 96.996 44.3955 96.786 44.8995 96.366C45.4128 95.9367 45.6695 95.3347 45.6695 94.56C45.6695 93.776 45.4128 93.1693 44.8995 92.74C44.3955 92.3107 43.6535 92.096 42.6735 92.096H39.6075L40.0695 91.606V97.5ZM51.8166 101.07C51.0513 101.07 50.3793 100.911 49.8006 100.594C49.2219 100.267 48.7693 99.824 48.4426 99.264C48.1159 98.6947 47.9526 98.046 47.9526 97.318C47.9526 96.59 48.1066 95.946 48.4146 95.386C48.7319 94.826 49.1613 94.3873 49.7026 94.07C50.2533 93.7433 50.8693 93.58 51.5506 93.58C52.2413 93.58 52.8526 93.7387 53.3846 94.056C53.9259 94.364 54.3506 94.8027 54.6586 95.372C54.9666 95.932 55.1206 96.5807 55.1206 97.318C55.1206 97.3647 55.1159 97.416 55.1066 97.472C55.1066 97.5187 55.1066 97.57 55.1066 97.626H48.7086V96.884H54.5746L54.1826 97.178C54.1826 96.646 54.0659 96.1747 53.8326 95.764C53.6086 95.344 53.3006 95.0173 52.9086 94.784C52.5166 94.5507 52.0639 94.434 51.5506 94.434C51.0466 94.434 50.5939 94.5507 50.1926 94.784C49.7913 95.0173 49.4786 95.344 49.2546 95.764C49.0306 96.184 48.9186 96.6647 48.9186 97.206V97.36C48.9186 97.92 49.0399 98.4147 49.2826 98.844C49.5346 99.264 49.8799 99.5953 50.3186 99.838C50.7666 100.071 51.2753 100.188 51.8446 100.188C52.2926 100.188 52.7079 100.109 53.0906 99.95C53.4826 99.7913 53.8186 99.5487 54.0986 99.222L54.6586 99.866C54.3319 100.258 53.9213 100.557 53.4266 100.762C52.9413 100.967 52.4046 101.07 51.8166 101.07ZM57.1438 101V93.65H58.0958V95.652L57.9978 95.302C58.2031 94.742 58.5485 94.3173 59.0338 94.028C59.5191 93.7293 60.1211 93.58 60.8398 93.58V94.546C60.8025 94.546 60.7651 94.546 60.7278 94.546C60.6905 94.5367 60.6531 94.532 60.6158 94.532C59.8411 94.532 59.2345 94.77 58.7958 95.246C58.3571 95.7127 58.1378 96.38 58.1378 97.248V101H57.1438ZM65.6372 101.07C64.9092 101.07 64.2559 100.911 63.6772 100.594C63.1079 100.267 62.6599 99.824 62.3332 99.264C62.0066 98.6947 61.8432 98.046 61.8432 97.318C61.8432 96.5807 62.0066 95.932 62.3332 95.372C62.6599 94.812 63.1079 94.3733 63.6772 94.056C64.2559 93.7387 64.9092 93.58 65.6372 93.58C66.2626 93.58 66.8272 93.7013 67.3312 93.944C67.8352 94.1867 68.2319 94.5507 68.5212 95.036L67.7792 95.54C67.5272 95.1667 67.2146 94.8913 66.8412 94.714C66.4679 94.5367 66.0619 94.448 65.6232 94.448C65.1006 94.448 64.6292 94.5693 64.2092 94.812C63.7892 95.0453 63.4579 95.3767 63.2152 95.806C62.9726 96.2353 62.8512 96.7393 62.8512 97.318C62.8512 97.8967 62.9726 98.4007 63.2152 98.83C63.4579 99.2593 63.7892 99.5953 64.2092 99.838C64.6292 100.071 65.1006 100.188 65.6232 100.188C66.0619 100.188 66.4679 100.099 66.8412 99.922C67.2146 99.7447 67.5272 99.474 67.7792 99.11L68.5212 99.614C68.2319 100.09 67.8352 100.454 67.3312 100.706C66.8272 100.949 66.2626 101.07 65.6372 101.07ZM73.4728 101.07C72.7075 101.07 72.0355 100.911 71.4568 100.594C70.8782 100.267 70.4255 99.824 70.0988 99.264C69.7722 98.6947 69.6088 98.046 69.6088 97.318C69.6088 96.59 69.7628 95.946 70.0708 95.386C70.3882 94.826 70.8175 94.3873 71.3588 94.07C71.9095 93.7433 72.5255 93.58 73.2068 93.58C73.8975 93.58 74.5088 93.7387 75.0408 94.056C75.5822 94.364 76.0068 94.8027 76.3148 95.372C76.6228 95.932 76.7768 96.5807 76.7768 97.318C76.7768 97.3647 76.7722 97.416 76.7628 97.472C76.7628 97.5187 76.7628 97.57 76.7628 97.626H70.3648V96.884H76.2308L75.8388 97.178C75.8388 96.646 75.7222 96.1747 75.4888 95.764C75.2648 95.344 74.9568 95.0173 74.5648 94.784C74.1728 94.5507 73.7202 94.434 73.2068 94.434C72.7028 94.434 72.2502 94.5507 71.8488 94.784C71.4475 95.0173 71.1348 95.344 70.9108 95.764C70.6868 96.184 70.5748 96.6647 70.5748 97.206V97.36C70.5748 97.92 70.6962 98.4147 70.9388 98.844C71.1908 99.264 71.5362 99.5953 71.9748 99.838C72.4228 100.071 72.9315 100.188 73.5008 100.188C73.9488 100.188 74.3642 100.109 74.7468 99.95C75.1388 99.7913 75.4748 99.5487 75.7548 99.222L76.3148 99.866C75.9882 100.258 75.5775 100.557 75.0828 100.762C74.5975 100.967 74.0608 101.07 73.4728 101.07ZM82.5521 93.58C83.1494 93.58 83.6721 93.6967 84.1201 93.93C84.5774 94.154 84.9321 94.4993 85.1841 94.966C85.4454 95.4327 85.5761 96.0207 85.5761 96.73V101H84.5821V96.828C84.5821 96.0533 84.3861 95.47 83.9941 95.078C83.6114 94.6767 83.0701 94.476 82.3701 94.476C81.8474 94.476 81.3901 94.5833 80.9981 94.798C80.6154 95.0033 80.3167 95.3067 80.1021 95.708C79.8967 96.1 79.7941 96.576 79.7941 97.136V101H78.8001V93.65H79.7521V95.666L79.5981 95.288C79.8314 94.756 80.2047 94.3407 80.7181 94.042C81.2314 93.734 81.8427 93.58 82.5521 93.58ZM90.585 101.07C89.8943 101.07 89.3623 100.883 88.989 100.51C88.6157 100.137 88.429 99.6093 88.429 98.928V92.026H89.423V98.872C89.423 99.3013 89.5303 99.6327 89.745 99.866C89.969 100.099 90.2863 100.216 90.697 100.216C91.1357 100.216 91.4997 100.09 91.789 99.838L92.139 100.552C91.943 100.729 91.705 100.86 91.425 100.944C91.1543 101.028 90.8743 101.07 90.585 101.07ZM87.113 94.476V93.65H91.663V94.476H87.113Z" fill="#848484"/>
<path d="M46.4623 127.301C44.0783 127.297 42.2151 126.631 40.8729 125.301C39.5307 123.971 38.8612 122.074 38.8644 119.61L38.8769 110.202L42.7649 110.208L42.7526 119.472C42.7505 121.072 43.077 122.224 43.732 122.929C44.3871 123.634 45.3066 123.987 46.4906 123.989C47.6746 123.99 48.5951 123.639 49.252 122.936C49.909 122.233 50.2385 121.082 50.2406 119.482L50.2529 110.218L54.0929 110.223L54.0804 119.631C54.0772 122.095 53.4026 123.99 52.0569 125.316C50.7111 126.642 48.8463 127.304 46.4623 127.301ZM61.9924 127.225C60.8884 127.224 59.8246 127.094 58.8009 126.837C57.7933 126.564 56.9937 126.226 56.4023 125.826L57.6538 123.139C58.2453 123.508 58.9409 123.813 59.7406 124.054C60.5563 124.279 61.3562 124.392 62.1402 124.393C63.0042 124.394 63.6123 124.291 63.9646 124.084C64.3329 123.876 64.5172 123.588 64.5177 123.22C64.5181 122.916 64.3744 122.692 64.0866 122.548C63.8148 122.387 63.447 122.267 62.9831 122.186C62.5192 122.106 62.0073 122.025 61.4474 121.944C60.9035 121.864 60.3517 121.759 59.7918 121.63C59.232 121.485 58.7203 121.277 58.2567 121.004C57.793 120.732 57.4175 120.363 57.1301 119.899C56.8587 119.434 56.7235 118.834 56.7245 118.098C56.7256 117.282 56.9585 116.562 57.4234 115.939C57.9042 115.316 58.5928 114.829 59.4893 114.478C60.3858 114.111 61.458 113.928 62.706 113.93C63.586 113.931 64.4819 114.028 65.3937 114.222C66.3054 114.415 67.065 114.696 67.6725 115.065L66.421 117.727C65.7975 117.358 65.1658 117.109 64.526 116.98C63.9022 116.836 63.2943 116.763 62.7023 116.762C61.8703 116.761 61.2621 116.872 60.8778 117.096C60.4935 117.319 60.3012 117.607 60.3007 117.959C60.3003 118.279 60.436 118.519 60.7077 118.679C60.9955 118.84 61.3714 118.968 61.8352 119.065C62.2991 119.161 62.803 119.25 63.3469 119.331C63.9068 119.396 64.4667 119.5 65.0265 119.645C65.5863 119.79 66.09 119.998 66.5376 120.271C67.0013 120.528 67.3768 120.888 67.6642 121.353C67.9516 121.801 68.0948 122.393 68.0939 123.129C68.0928 123.929 67.8519 124.641 67.371 125.264C66.8902 125.872 66.1936 126.351 65.2811 126.701C64.3847 127.052 63.2884 127.227 61.9924 127.225ZM76.8064 127.245C75.3344 127.243 74.0388 126.953 72.9196 126.376C71.8163 125.798 70.9614 125.013 70.3547 124.02C69.748 123.011 69.4455 121.867 69.4472 120.587C69.4489 119.291 69.7465 118.147 70.3398 117.156C70.9491 116.149 71.7741 115.366 72.8149 114.807C73.8556 114.233 75.032 113.946 76.344 113.948C77.608 113.95 78.7437 114.223 79.7509 114.769C80.7742 115.298 81.5812 116.067 82.1719 117.076C82.7626 118.069 83.057 119.261 83.0552 120.653C83.055 120.797 83.0467 120.965 83.0305 121.157C83.0143 121.333 82.998 121.501 82.9818 121.661L72.4938 121.647L72.4967 119.463L81.0167 119.474L79.5759 120.12C79.5767 119.448 79.4415 118.864 79.1702 118.368C78.8988 117.871 78.5233 117.487 78.0437 117.214C77.5641 116.926 77.0043 116.781 76.3643 116.78C75.7243 116.779 75.1561 116.923 74.6597 117.21C74.1793 117.481 73.8028 117.873 73.5301 118.384C73.2575 118.88 73.1207 119.472 73.1198 120.16L73.119 120.736C73.1181 121.44 73.2693 122.064 73.5726 122.608C73.8919 123.137 74.3313 123.545 74.8909 123.834C75.4666 124.107 76.1384 124.244 76.9064 124.245C77.5944 124.246 78.1945 124.143 78.7068 123.935C79.2351 123.728 79.7155 123.417 80.148 123.001L82.1372 125.164C81.5443 125.835 80.7996 126.354 79.9031 126.721C79.0066 127.072 77.9744 127.246 76.8064 127.245ZM85.5393 127.064L85.5564 114.152L89.1324 114.157L89.1276 117.805L88.625 116.748C89.0102 115.837 89.6271 115.15 90.4757 114.687C91.3243 114.208 92.3566 113.969 93.5726 113.971L93.5681 117.427C93.4081 117.411 93.2641 117.402 93.1361 117.402C93.0081 117.386 92.8721 117.378 92.7281 117.378C91.7041 117.376 90.8717 117.671 90.2309 118.262C89.6062 118.838 89.293 119.741 89.2914 120.973L89.2833 127.069L85.5393 127.064ZM100.728 127.084L108.238 110.294L112.078 110.299L119.568 127.109L115.488 127.104L109.364 112.264L110.9 112.266L104.712 127.09L100.728 127.084ZM104.477 123.489L105.513 120.539L114.153 120.55L115.205 123.504L104.477 123.489ZM126.474 127.31C125.258 127.309 124.162 127.035 123.187 126.49C122.211 125.929 121.436 125.152 120.862 124.159C120.303 123.166 120.025 121.998 120.026 120.654C120.028 119.294 120.31 118.118 120.871 117.127C121.448 116.136 122.225 115.369 123.202 114.826C124.179 114.283 125.275 114.013 126.491 114.015C127.579 114.016 128.531 114.257 129.346 114.738C130.162 115.219 130.793 115.948 131.239 116.925C131.686 117.901 131.908 119.15 131.906 120.67C131.904 122.174 131.687 123.421 131.253 124.413C130.82 125.388 130.195 126.115 129.379 126.594C128.578 127.073 127.61 127.312 126.474 127.31ZM127.126 124.239C127.734 124.24 128.286 124.097 128.782 123.81C129.279 123.522 129.671 123.115 129.96 122.587C130.265 122.044 130.417 121.404 130.418 120.668C130.419 119.916 130.268 119.276 129.965 118.747C129.678 118.219 129.286 117.81 128.791 117.522C128.295 117.233 127.743 117.088 127.135 117.087C126.511 117.087 125.951 117.23 125.455 117.517C124.958 117.804 124.558 118.212 124.253 118.74C123.964 119.267 123.819 119.907 123.818 120.659C123.817 121.395 123.961 122.035 124.248 122.58C124.551 123.108 124.951 123.516 125.446 123.805C125.942 124.094 126.502 124.239 127.126 124.239ZM130.506 127.124L130.509 124.484L130.586 120.644L130.352 116.828L130.361 109.316L134.105 109.321L134.082 127.129L130.506 127.124ZM143.691 127.333C142.315 127.331 141.091 127.042 140.02 126.464C138.965 125.887 138.126 125.102 137.503 124.109C136.896 123.1 136.594 121.956 136.596 120.676C136.597 119.38 136.903 118.236 137.512 117.245C138.137 116.238 138.979 115.455 140.035 114.896C141.108 114.322 142.332 114.035 143.708 114.037C145.068 114.039 146.284 114.329 147.355 114.906C148.427 115.468 149.265 116.245 149.872 117.237C150.479 118.23 150.781 119.383 150.78 120.695C150.778 121.975 150.472 123.118 149.863 124.125C149.254 125.117 148.413 125.9 147.34 126.474C146.267 127.049 145.051 127.335 143.691 127.333ZM143.695 124.261C144.319 124.262 144.879 124.119 145.375 123.832C145.872 123.544 146.264 123.137 146.553 122.609C146.842 122.065 146.987 121.426 146.988 120.69C146.989 119.938 146.845 119.297 146.558 118.769C146.271 118.241 145.879 117.832 145.384 117.544C144.888 117.255 144.328 117.11 143.704 117.109C143.08 117.108 142.52 117.252 142.024 117.539C141.527 117.826 141.127 118.234 140.822 118.761C140.533 119.289 140.389 119.929 140.388 120.681C140.387 121.417 140.53 122.057 140.817 122.601C141.12 123.13 141.52 123.538 142.015 123.827C142.511 124.116 143.071 124.26 143.695 124.261ZM160.905 127.356C159.817 127.355 158.866 127.113 158.05 126.632C157.235 126.151 156.596 125.422 156.133 124.446C155.687 123.453 155.464 122.205 155.466 120.701C155.468 119.181 155.686 117.933 156.119 116.958C156.552 115.982 157.177 115.255 157.994 114.776C158.811 114.297 159.787 114.059 160.923 114.06C162.139 114.062 163.227 114.343 164.186 114.904C165.161 115.45 165.928 116.219 166.487 117.211C167.061 118.204 167.348 119.373 167.346 120.717C167.344 122.077 167.055 123.252 166.477 124.243C165.916 125.235 165.147 126.002 164.17 126.544C163.21 127.087 162.121 127.358 160.905 127.356ZM153.267 131.81L153.291 114.242L156.867 114.247L156.863 116.887L156.786 120.727L157.021 124.543L157.011 131.815L153.267 131.81ZM160.261 124.283C160.885 124.284 161.438 124.141 161.918 123.853C162.414 123.566 162.807 123.159 163.096 122.631C163.4 122.087 163.553 121.448 163.554 120.712C163.555 119.96 163.404 119.319 163.101 118.791C162.813 118.263 162.422 117.854 161.926 117.565C161.447 117.277 160.895 117.132 160.271 117.131C159.647 117.13 159.087 117.274 158.59 117.561C158.094 117.848 157.701 118.256 157.413 118.783C157.124 119.311 156.979 119.951 156.978 120.703C156.977 121.439 157.12 122.079 157.408 122.623C157.695 123.152 158.086 123.56 158.582 123.849C159.078 124.138 159.637 124.282 160.261 124.283ZM175.124 127.375C173.604 127.373 172.42 126.987 171.573 126.218C170.726 125.433 170.304 124.273 170.306 122.737L170.321 111.409L174.065 111.414L174.05 122.694C174.049 123.238 174.193 123.662 174.48 123.966C174.768 124.254 175.16 124.399 175.656 124.4C176.248 124.4 176.752 124.241 177.168 123.922L178.173 126.563C177.788 126.834 177.324 127.042 176.78 127.185C176.252 127.312 175.7 127.376 175.124 127.375ZM168.321 117.43L168.325 114.55L177.277 114.562L177.273 117.442L168.321 117.43ZM180.274 127.19L180.291 114.278L184.035 114.283L184.018 127.195L180.274 127.19ZM182.165 112.48C181.477 112.479 180.917 112.279 180.486 111.878C180.054 111.477 179.839 110.981 179.84 110.389C179.841 109.797 180.057 109.301 180.49 108.902C180.922 108.503 181.483 108.303 182.171 108.304C182.859 108.305 183.418 108.498 183.85 108.882C184.281 109.251 184.497 109.731 184.496 110.323C184.495 110.947 184.278 111.467 183.846 111.882C183.429 112.282 182.869 112.481 182.165 112.48ZM193.636 127.399C192.26 127.398 191.036 127.108 189.965 126.531C188.91 125.953 188.071 125.168 187.448 124.175C186.842 123.166 186.539 122.022 186.541 120.742C186.543 119.446 186.848 118.302 187.457 117.311C188.083 116.304 188.924 115.521 189.981 114.963C191.053 114.388 192.278 114.102 193.654 114.103C195.014 114.105 196.229 114.395 197.301 114.972C198.372 115.534 199.211 116.311 199.817 117.304C200.424 118.296 200.727 119.449 200.725 120.761C200.723 122.041 200.418 123.184 199.808 124.192C199.199 125.183 198.358 125.966 197.285 126.54C196.212 127.115 194.996 127.401 193.636 127.399ZM193.64 124.327C194.264 124.328 194.824 124.185 195.321 123.898C195.817 123.61 196.21 123.203 196.498 122.675C196.787 122.132 196.932 121.492 196.933 120.756C196.934 120.004 196.791 119.364 196.503 118.835C196.216 118.307 195.825 117.898 195.329 117.61C194.833 117.321 194.274 117.176 193.65 117.175C193.026 117.175 192.465 117.318 191.969 117.605C191.473 117.893 191.072 118.3 190.767 118.828C190.479 119.355 190.334 119.995 190.333 120.747C190.332 121.483 190.475 122.123 190.762 122.668C191.066 123.196 191.465 123.605 191.961 123.893C192.456 124.182 193.016 124.327 193.64 124.327ZM211.084 114.127C212.108 114.128 213.02 114.337 213.819 114.754C214.635 115.155 215.274 115.78 215.737 116.629C216.2 117.461 216.43 118.534 216.429 119.846L216.419 127.238L212.675 127.233L212.684 120.417C212.685 119.377 212.454 118.608 211.991 118.112C211.544 117.615 210.904 117.366 210.072 117.365C209.48 117.364 208.944 117.492 208.463 117.747C207.999 117.986 207.631 118.362 207.358 118.874C207.101 119.385 206.972 120.041 206.971 120.841L206.963 127.225L203.219 127.22L203.236 114.308L206.812 114.313L206.807 117.889L206.137 116.808C206.602 115.945 207.267 115.282 208.131 114.819C208.996 114.356 209.98 114.125 211.084 114.127ZM221.24 118.82C220.6 118.819 220.048 118.602 219.585 118.17C219.137 117.721 218.914 117.153 218.915 116.465C218.916 115.777 219.141 115.225 219.589 114.81C220.054 114.378 220.606 114.163 221.246 114.164C221.902 114.165 222.454 114.382 222.901 114.814C223.349 115.231 223.572 115.783 223.571 116.471C223.57 117.159 223.345 117.727 222.897 118.174C222.448 118.606 221.896 118.821 221.24 118.82ZM221.228 127.436C220.588 127.435 220.037 127.218 219.573 126.786C219.126 126.337 218.903 125.769 218.903 125.081C218.904 124.393 219.129 123.841 219.578 123.426C220.042 122.994 220.595 122.779 221.235 122.78C221.891 122.781 222.442 122.998 222.89 123.43C223.337 123.847 223.56 124.399 223.559 125.087C223.559 125.775 223.334 126.343 222.885 126.79C222.437 127.222 221.884 127.437 221.228 127.436ZM241.286 112.775L238.092 114.522L238.092 113.898L241.282 115.631L240.104 117.597L237.13 115.817L237.466 115.602L237.51 118.938L235.254 118.935L235.282 115.599L235.618 115.815L232.64 117.587L231.49 115.618L234.684 113.894L234.684 114.518L231.494 112.762L232.649 110.795L235.622 112.599L235.286 112.791L235.266 109.455L237.522 109.458L237.47 112.794L237.134 112.601L240.113 110.805L241.286 112.775ZM252.161 112.789L248.967 114.537L248.967 113.913L252.157 115.645L250.979 117.611L248.005 115.831L248.341 115.616L248.385 118.952L246.129 118.949L246.157 115.613L246.493 115.829L243.515 117.602L242.365 115.632L245.559 113.908L245.559 114.532L242.369 112.776L243.524 110.81L246.497 112.613L246.161 112.805L246.141 109.469L248.397 109.472L248.345 112.808L248.009 112.615L250.988 110.819L252.161 112.789ZM256.531 127.291L268.025 110.506L270.881 110.51L259.387 127.295L256.531 127.291ZM258.005 119.565C257.189 119.564 256.469 119.379 255.845 119.01C255.222 118.625 254.727 118.088 254.36 117.4C254.009 116.695 253.834 115.871 253.835 114.927C253.836 113.983 254.013 113.167 254.366 112.48C254.735 111.792 255.232 111.257 255.856 110.874C256.481 110.491 257.201 110.3 258.017 110.301C258.833 110.302 259.553 110.495 260.176 110.88C260.8 111.264 261.287 111.801 261.638 112.49C261.989 113.178 262.164 113.994 262.163 114.938C262.162 115.882 261.985 116.706 261.632 117.41C261.279 118.097 260.79 118.632 260.165 119.016C259.541 119.383 258.821 119.566 258.005 119.565ZM258.007 117.597C258.535 117.597 258.96 117.382 259.28 116.95C259.601 116.503 259.762 115.831 259.763 114.935C259.764 114.039 259.605 113.375 259.286 112.942C258.966 112.494 258.542 112.269 258.014 112.269C257.502 112.268 257.078 112.491 256.742 112.939C256.421 113.371 256.26 114.034 256.259 114.93C256.258 115.81 256.417 116.475 256.736 116.923C257.072 117.371 257.495 117.596 258.007 117.597ZM269.394 127.5C268.594 127.499 267.874 127.314 267.235 126.945C266.611 126.56 266.124 126.023 265.773 125.335C265.422 124.631 265.247 123.806 265.248 122.862C265.25 121.918 265.427 121.103 265.78 120.415C266.133 119.727 266.621 119.192 267.246 118.809C267.886 118.426 268.607 118.235 269.407 118.236C270.239 118.237 270.966 118.43 271.59 118.815C272.213 119.2 272.701 119.736 273.052 120.425C273.403 121.113 273.578 121.929 273.576 122.873C273.575 123.817 273.398 124.641 273.045 125.345C272.692 126.032 272.203 126.568 271.579 126.951C270.954 127.318 270.226 127.501 269.394 127.5ZM269.397 125.532C269.925 125.533 270.349 125.317 270.67 124.886C270.99 124.438 271.151 123.766 271.152 122.87C271.154 121.99 270.994 121.326 270.675 120.878C270.356 120.429 269.932 120.205 269.404 120.204C268.892 120.203 268.468 120.427 268.131 120.874C267.81 121.306 267.65 121.97 267.648 122.866C267.647 123.762 267.806 124.434 268.126 124.882C268.461 125.315 268.885 125.531 269.397 125.532Z" fill="black"/>
<path d="M330.223 110V108.53L334.003 104.96C334.301 104.689 334.521 104.447 334.661 104.232C334.801 104.017 334.894 103.821 334.941 103.644C334.997 103.467 335.025 103.303 335.025 103.154C335.025 102.762 334.889 102.463 334.619 102.258C334.357 102.043 333.97 101.936 333.457 101.936C333.046 101.936 332.663 102.015 332.309 102.174C331.963 102.333 331.669 102.58 331.427 102.916L329.775 101.852C330.148 101.292 330.671 100.849 331.343 100.522C332.015 100.195 332.789 100.032 333.667 100.032C334.395 100.032 335.029 100.153 335.571 100.396C336.121 100.629 336.546 100.961 336.845 101.39C337.153 101.819 337.307 102.333 337.307 102.93C337.307 103.247 337.265 103.565 337.181 103.882C337.106 104.19 336.947 104.517 336.705 104.862C336.471 105.207 336.126 105.595 335.669 106.024L332.533 108.978L332.099 108.152H337.629V110H330.223ZM342.947 110.168C342.051 110.168 341.271 109.981 340.609 109.608C339.955 109.235 339.451 108.689 339.097 107.97C338.742 107.251 338.565 106.365 338.565 105.31C338.565 104.181 338.775 103.224 339.195 102.44C339.624 101.656 340.212 101.059 340.959 100.648C341.715 100.237 342.583 100.032 343.563 100.032C344.085 100.032 344.585 100.088 345.061 100.2C345.537 100.312 345.947 100.48 346.293 100.704L345.453 102.37C345.182 102.183 344.893 102.057 344.585 101.992C344.277 101.917 343.955 101.88 343.619 101.88C342.769 101.88 342.097 102.137 341.603 102.65C341.108 103.163 340.861 103.924 340.861 104.932C340.861 105.1 340.861 105.287 340.861 105.492C340.87 105.697 340.898 105.903 340.945 106.108L340.315 105.52C340.492 105.156 340.721 104.853 341.001 104.61C341.281 104.358 341.612 104.171 341.995 104.05C342.387 103.919 342.816 103.854 343.283 103.854C343.917 103.854 344.487 103.98 344.991 104.232C345.495 104.484 345.896 104.839 346.195 105.296C346.503 105.753 346.657 106.29 346.657 106.906C346.657 107.569 346.489 108.147 346.153 108.642C345.826 109.127 345.383 109.505 344.823 109.776C344.272 110.037 343.647 110.168 342.947 110.168ZM342.821 108.474C343.138 108.474 343.418 108.418 343.661 108.306C343.913 108.185 344.109 108.012 344.249 107.788C344.389 107.564 344.459 107.307 344.459 107.018C344.459 106.57 344.305 106.215 343.997 105.954C343.698 105.683 343.297 105.548 342.793 105.548C342.457 105.548 342.163 105.613 341.911 105.744C341.659 105.865 341.458 106.038 341.309 106.262C341.169 106.477 341.099 106.729 341.099 107.018C341.099 107.298 341.169 107.55 341.309 107.774C341.449 107.989 341.645 108.161 341.897 108.292C342.149 108.413 342.457 108.474 342.821 108.474ZM348.903 110.112C348.53 110.112 348.208 109.986 347.937 109.734C347.676 109.473 347.545 109.141 347.545 108.74C347.545 108.339 347.676 108.017 347.937 107.774C348.208 107.522 348.53 107.396 348.903 107.396C349.286 107.396 349.608 107.522 349.869 107.774C350.131 108.017 350.261 108.339 350.261 108.74C350.261 109.141 350.131 109.473 349.869 109.734C349.608 109.986 349.286 110.112 348.903 110.112ZM351.167 107.942V106.416L355.787 100.2H358.167L353.645 106.416L352.539 106.094H360.253V107.942H351.167ZM356.445 110V107.942L356.515 106.094V104.26H358.657V110H356.445ZM361.922 110L368.614 100.2H370.28L363.588 110H361.922ZM362.776 105.492C362.3 105.492 361.88 105.385 361.516 105.17C361.152 104.946 360.863 104.633 360.648 104.232C360.443 103.821 360.34 103.341 360.34 102.79C360.34 102.239 360.443 101.763 360.648 101.362C360.863 100.961 361.152 100.648 361.516 100.424C361.88 100.2 362.3 100.088 362.776 100.088C363.252 100.088 363.672 100.2 364.036 100.424C364.4 100.648 364.685 100.961 364.89 101.362C365.095 101.763 365.198 102.239 365.198 102.79C365.198 103.341 365.095 103.821 364.89 104.232C364.685 104.633 364.4 104.946 364.036 105.17C363.672 105.385 363.252 105.492 362.776 105.492ZM362.776 104.344C363.084 104.344 363.331 104.218 363.518 103.966C363.705 103.705 363.798 103.313 363.798 102.79C363.798 102.267 363.705 101.88 363.518 101.628C363.331 101.367 363.084 101.236 362.776 101.236C362.477 101.236 362.23 101.367 362.034 101.628C361.847 101.88 361.754 102.267 361.754 102.79C361.754 103.303 361.847 103.691 362.034 103.952C362.23 104.213 362.477 104.344 362.776 104.344ZM369.426 110.112C368.959 110.112 368.539 110.005 368.166 109.79C367.802 109.566 367.517 109.253 367.312 108.852C367.107 108.441 367.004 107.961 367.004 107.41C367.004 106.859 367.107 106.383 367.312 105.982C367.517 105.581 367.802 105.268 368.166 105.044C368.539 104.82 368.959 104.708 369.426 104.708C369.911 104.708 370.336 104.82 370.7 105.044C371.064 105.268 371.349 105.581 371.554 105.982C371.759 106.383 371.862 106.859 371.862 107.41C371.862 107.961 371.759 108.441 371.554 108.852C371.349 109.253 371.064 109.566 370.7 109.79C370.336 110.005 369.911 110.112 369.426 110.112ZM369.426 108.964C369.734 108.964 369.981 108.838 370.168 108.586C370.355 108.325 370.448 107.933 370.448 107.41C370.448 106.897 370.355 106.509 370.168 106.248C369.981 105.987 369.734 105.856 369.426 105.856C369.127 105.856 368.88 105.987 368.684 106.248C368.497 106.5 368.404 106.887 368.404 107.41C368.404 107.933 368.497 108.325 368.684 108.586C368.88 108.838 369.127 108.964 369.426 108.964Z" fill="#008C30"/>
<path d="M325.302 108.889L325.302 101M325.302 101L323 103.958M325.302 101L327.604 103.958" stroke="#008C30" stroke-width="2" stroke-linecap="round" stroke-linejoin="round"/>
<defs>
<filter id="filter0_bd_162_29" x="0" y="0" width="409" height="171" filterUnits="userSpaceOnUse" color-interpolation-filters="sRGB">
<feFlood flood-opacity="0" result="BackgroundImageFix"/>
<feGaussianBlur in="BackgroundImageFix" stdDeviation="2.5"/>
<feComposite in2="SourceAlpha" operator="in" result="effect1_backgroundBlur_162_29"/>
<feColorMatrix in="SourceAlpha" type="matrix" values="0 0 0 0 0 0 0 0 0 0 0 0 0 0 0 0 0 0 127 0" result="hardAlpha"/>
<feOffset dy="4"/>
<feGaussianBlur stdDeviation="7.5"/>
<feComposite in2="hardAlpha" operator="out"/>
<feColorMatrix type="matrix" values="0 0 0 0 0 0 0 0 0 0 0 0 0 0 0 0 0 0 0.25 0"/>
<feBlend mode="normal" in2="effect1_backgroundBlur_162_29" result="effect2_dropShadow_162_29"/>
<feBlend mode="normal" in="SourceGraphic" in2="effect2_dropShadow_162_29" result="shape"/>
</filter>
<linearGradient id="paint0_linear_162_29" x1="66" y1="6.00001" x2="393" y2="166.5" gradientUnits="userSpaceOnUse">
<stop stop-color="white"/>
<stop offset="1" stop-color="white" stop-opacity="0"/>
</linearGradient>
<linearGradient id="paint1_linear_162_29" x1="353" y1="54.5" x2="271.5" y2="74.5" gradientUnits="userSpaceOnUse">
<stop stop-color="#008C30"/>
<stop offset="0.473958" stop-color="#00FF57"/>
<stop offset="0.927083" stop-color="#008C30"/>
</linearGradient>
</defs>
</svg>
